<svg xmlns="http://www.w3.org/2000/svg" width="36" height="36" viewBox="0 0 36 36">
  <g id="Group_2349" data-name="Group 2349" transform="translate(-469 -4687)">
    <g id="noun-announcement-1446988" transform="translate(475 4695)">
      <path id="Path_1859" data-name="Path 1859" d="M129.771,115.178v-6.137h3.464l11.241,5.621.273.061h0a.607.607,0,0,0,.608-.608v-4.952l1.61-.608h0a3.676,3.676,0,0,0,2.339-3.4v-.76a3.676,3.676,0,0,0-2.339-3.4l-1.61-.608V95.734a.608.608,0,0,0-.881-.547l-11.241,5.621h-4.709a3.646,3.646,0,0,0-3.646,3.646v.942a3.646,3.646,0,0,0,3.646,3.646v6.137Zm16.771-13.034a2.43,2.43,0,0,1,1.549,2.279v.729a2.43,2.43,0,0,1-1.549,2.279l-1.185.456v-6.2Zm-12.548-.365,10.147-5.043v16.406l-10.147-5.074Zm-7.9,3.615v-.942a2.43,2.43,0,0,1,2.43-2.431h4.254v5.8h-4.254a2.43,2.43,0,0,1-2.43-2.431Z" transform="translate(-124.879 -95.122)"/>
      <path id="Path_1859_-_Outline" data-name="Path 1859 - Outline" d="M130.146,115.553h-2V109.4a4.022,4.022,0,0,1-3.646-4v-.942a4.021,4.021,0,0,1,4.021-4.021h4.621l11.162-5.581a.983.983,0,0,1,1.424.885v4.387l1.368.516a4.051,4.051,0,0,1,2.582,3.751v.762a4.052,4.052,0,0,1-2.339,3.65v.012l-1.61.608v4.693a.983.983,0,0,1-.807.967l-.05.052-.525-.117-11.2-5.6h-3Zm-1.246-.75h.5v-6.137h3.927l11.279,5.64.178.04a.232.232,0,0,0,.2-.231V108.9l1.849-.7a3.3,3.3,0,0,0,2.1-3.056v-.757a3.3,3.3,0,0,0-2.1-3.053l-1.849-.7V95.734a.233.233,0,0,0-.337-.212l-11.322,5.661h-4.8a3.271,3.271,0,0,0-3.271,3.271v.942a3.271,3.271,0,0,0,3.271,3.271h.375Zm15.616-1.054-10.9-5.449v-6.753l10.9-5.416Zm-10.147-5.912,9.4,4.7V97.342l-9.4,4.671Zm10.613.6v-7.29l1.695.652a2.8,2.8,0,0,1,1.79,2.631v.727a2.8,2.8,0,0,1-1.788,2.628Zm.75-6.2v5.106l.675-.26a2.055,2.055,0,0,0,1.309-1.927v-.731a2.055,2.055,0,0,0-1.31-1.929ZM133.153,108.2h-4.629a2.805,2.805,0,0,1-2.805-2.806v-.942a2.805,2.805,0,0,1,2.805-2.806h4.629ZM126.47,105.4a2.055,2.055,0,0,0,2.055,2.056H132.4V102.4h-3.879a2.055,2.055,0,0,0-2.055,2.056Z" transform="translate(-124.879 -95.122)"/>
    </g>
    <rect id="Rectangle_2772" data-name="Rectangle 2772" width="36" height="36" transform="translate(469 4687)" fill="none"/>
  </g>
</svg>
