<svg xmlns="http://www.w3.org/2000/svg" width="36" height="36" viewBox="0 0 36 36">
  <g id="Group_2346" data-name="Group 2346" transform="translate(-469 -4471)">
    <g id="home" transform="translate(475 4477)">
      <path id="Path_1961" data-name="Path 1961" d="M12,1a1,1,0,0,1,.614.211l9,7A1,1,0,0,1,22,9V20a3,3,0,0,1-3,3H5a3,3,0,0,1-3-3V9a1,1,0,0,1,.386-.789l9-7A1,1,0,0,1,12,1Zm8,8.489L12,3.267,4,9.489V20a1,1,0,0,0,1,1H19a1,1,0,0,0,1-1Z"/>
      <path id="Path_1962" data-name="Path 1962" d="M15,23a1,1,0,0,1-1-1V13H10v9a1,1,0,0,1-2,0V12a1,1,0,0,1,1-1h6a1,1,0,0,1,1,1V22A1,1,0,0,1,15,23Z"/>
    </g>
    <rect id="Rectangle_2769" data-name="Rectangle 2769" width="36" height="36" transform="translate(469 4471)" fill="none"/>
  </g>
</svg>
