<?xml version="1.0" encoding="utf-8"?>
<!-- Generator: Adobe Illustrator 21.0.0, SVG Export Plug-In . SVG Version: 6.00 Build 0)  -->
<svg version="1.1" id="Layer_1" xmlns="http://www.w3.org/2000/svg" xmlns:xlink="http://www.w3.org/1999/xlink" x="0px" y="0px"
	 viewBox="0 0 315 50" style="enable-background:new 0 0 315 50;" xml:space="preserve">
<style type="text/css">
	.st0{fill:#FFFFFF;}
	.st1{fill:#BF9C66;}
	.st2{fill:none;stroke:#FFFFFF;stroke-miterlimit:10;}
</style>
<path class="st0" d="M149.8,20.4c-1.5,0.9-2.4,2.7-2.4,4.7c0,1.9,0.9,3.4,1.7,4.1c1.2,1,2.7,1.5,4.7,1.5c0.9,0,2.1-0.2,3-0.6
	c0.2-0.1,0.2-0.2,0.2-0.8v-3.1c0-0.5,0.2-0.7,0.5-0.7c0,0,0.3,0,0.3,0c0.1,0,0.2-0.1,0.2-0.2c0-0.2-0.2-0.2-0.3-0.2h-3
	c-0.1,0-0.3,0-0.3,0.2c0,0.1,0.1,0.2,0.2,0.2c0.1,0,0.4,0,0.5,0c0.5,0.1,0.6,0.2,0.6,1.4v2.4c0,0.2-0.1,0.3-0.2,0.4
	c-0.3,0.2-1,0.3-1.6,0.3c-1.4,0-2.6-0.5-3.7-1.5c-0.5-0.5-1.5-1.9-1.5-3.9c0-1.5,0.5-2.9,1.4-3.5c1-0.8,2-0.9,3-0.9
	c1.8,0,2.9,0.6,3.3,1.1c0.2,0.4,0.3,0.8,0.3,0.9c0,0.1,0,0.3,0.2,0.3c0.2,0,0.2-0.2,0.2-0.4c0,0,0.1-2,0.1-2c0-0.1,0-0.2-0.2-0.2
	c-0.4,0-0.9-0.1-1.1-0.1c-0.1,0-1.2-0.2-2.2-0.2C152.6,19.5,151.1,19.6,149.8,20.4z"/>
<path class="st0" d="M166.3,26.4c0,0,1.4,3.6,1.4,3.6c0,0.1,0,0.1,0,0.2c0,0.1-0.1,0.1-0.1,0.1c-0.1,0-0.1,0.1-0.1,0.2
	c0,0.1,0.2,0.1,0.4,0.2l2.3,0c0.3,0,0.4-0.1,0.4-0.2c0-0.2-0.2-0.2-0.2-0.2c-0.2,0-0.4,0-0.5-0.1c-0.3-0.1-0.7-0.3-1.2-1.6
	c-0.6-1.6-3.3-8.5-3.3-8.5c-0.2-0.5-0.2-0.6-0.4-0.6c-0.1,0-0.2,0.1-0.4,0.6l-3.2,8.8c-0.3,0.8-0.5,1.2-1.1,1.3c0,0-0.4,0-0.4,0
	c-0.1,0-0.2,0.1-0.2,0.2c0,0.2,0.2,0.2,0.3,0.2h2.7c0.2,0,0.3-0.1,0.3-0.2c0-0.1,0-0.2-0.2-0.2h-0.1c-0.2,0-0.5-0.1-0.5-0.3
	c0-0.2,1.1-3.5,1.1-3.5H166.3z M163.3,25.7l1.3-3.9l1.4,3.9H163.3z"/>
<g>
	<g>
		<path class="st1" d="M22,47.8L22,47.8c6.4,0.7,9.2-1,13-2c6.1-1.6,7.5,4.1,7.5,4.1V30.6C40.2,40.1,32,47.2,22,47.8z"/>
		<path class="st1" d="M42.6,19.5V0.2c0,0-1.4,5.7-7.5,4.1c-3.8-1-6.7-2.7-13-2l0,0C32,3,40.2,10.1,42.6,19.5z"/>
	</g>
	<path class="st1" d="M9,25.1c0-9.6,6.8-17.6,15.8-19.6C23.3,5.2,21.9,5,20.4,5C9.4,5,0.4,14,0.4,25.1c0,11.1,9,20.1,20.1,20.1
		c1.5,0,2.9-0.2,4.3-0.5C15.7,42.7,9,34.7,9,25.1z"/>
</g>
<path class="st0" d="M60.6,21.1c-1.1,1.2-1.5,2.8-1.5,4c0.1,1.8,0.7,3.2,1.9,4.2c1.2,1,2.7,1.5,4.8,1.4c0.8,0,2-0.2,2.6-0.4
	c0.3-0.1,0.3-0.2,0.4-0.5c0.1-0.5,0.3-1.7,0.3-1.8c0-0.3-0.1-0.3-0.2-0.3c-0.2,0-0.2,0.2-0.2,0.3c0,0.2-0.2,0.9-0.5,1.2
	c-0.6,0.6-1.5,0.7-2.4,0.8c-3.2,0.1-5.1-2.4-5.2-4.9c0-1.2,0.1-2.6,1.1-3.7c0.7-0.7,1.7-1.1,3.2-1.1c1.3,0,2.4,0.3,2.8,0.7
	c0.4,0.3,0.6,0.8,0.6,1.4c0,0.2,0,0.4,0.2,0.4c0.2,0,0.2-0.2,0.2-0.4c0,0,0-2.3,0-2.3c0-0.1-0.1-0.2-0.2-0.2c-0.6-0.1-2-0.3-3.5-0.3
	C63.1,19.5,61.7,20,60.6,21.1z"/>
<path class="st0" d="M78.4,19.5c-4.1,0-5.6,3.4-5.6,5.6c0,2.7,1.7,5.6,5.6,5.6c3.3,0,5.7-2.5,5.7-5.9C84,21.7,81.8,19.5,78.4,19.5z
	 M78.7,30c-2.6,0-4.5-2.2-4.5-5.4c0-2.8,1.6-4.6,4.1-4.6c2,0,4.2,1.6,4.2,5.2C82.6,29.8,79.4,30,78.7,30z"/>
<path class="st0" d="M107.2,20.4c0.7,0,0.9,0.3,0.9,0.5c0.1,0.1,0.1,0.4,0.1,0.5c0,0.2,0.1,0.3,0.2,0.3c0.1,0,0.2-0.2,0.2-0.2
	c0,0,0.2-1.6,0.2-1.6c0-0.1,0-0.1-0.1-0.2c0,0-0.1,0-0.1,0c-0.4,0.1-0.7,0.1-0.7,0.1h-5.4c-0.1,0-0.3,0-0.3,0.2
	c0,0.1,0.1,0.2,0.2,0.2c0.1,0,0.4,0,0.5,0c0.4,0.1,0.5,0.3,0.5,0.7c0,0,0,8.7,0,8.7c0,0.4-0.1,0.6-0.4,0.7c-0.2,0-0.3,0.1-0.4,0.1
	c-0.1,0-0.2,0.1-0.2,0.2c0,0.2,0.2,0.2,0.3,0.2h5.5c0.6,0,0.7,0,0.8-0.4c0.1-0.3,0.2-1.3,0.2-1.4c0-0.1,0-0.3-0.2-0.3
	c-0.1,0-0.2,0.2-0.2,0.3c-0.1,0.6-0.3,0.8-0.6,1c-0.4,0.2-1,0.2-1.3,0.2c-1.4,0-2.1-0.2-2.1-1.1v-3.6l2.6,0c0.5,0,0.6,0.3,0.7,0.4
	c0.1,0.2,0.1,0.3,0.1,0.4c0,0.1,0.1,0.2,0.2,0.2c0.2,0,0.2-0.1,0.2-0.3l0.2-1.8c0-0.2-0.1-0.2-0.1-0.2c-0.1,0-0.1,0.1-0.2,0.2l0,0
	c-0.1,0.1-0.2,0.2-0.6,0.2h-2.8v-4H107.2z"/>
<path class="st0" d="M113.2,22.3c0,1,0.6,1.8,2.2,3l0.7,0.5c1.3,1,1.7,1.6,1.7,2.5c0,0.9-0.7,1.8-1.9,1.8c-0.5,0-2.1-0.1-2.4-1.3
	c0-0.2-0.1-0.4-0.1-0.5c0-0.1,0-0.2-0.2-0.2c-0.2,0-0.2,0.2-0.2,0.3c0,0,0,1.5,0,1.5c0,0.4,0,0.5,0.3,0.6l0,0
	c0.5,0.2,1.5,0.3,2.2,0.3c0.9,0,1.7-0.3,2.3-0.7c1-0.7,1.2-1.7,1.2-2.4c0-1.1-0.6-2-2.4-3.3l-0.4-0.3c-1.4-1.1-1.9-1.5-1.9-2.2
	c0-0.9,0.7-1.7,1.7-1.7c1.2,0,1.9,0.4,2.1,0.6c0.1,0.1,0.2,0.5,0.2,0.7c0,0.1,0,0.2,0.2,0.2c0.2,0,0.2-0.3,0.2-0.4c0,0,0-1.5,0-1.5
	c0-0.2-0.2-0.2-0.2-0.2c-0.1,0-0.2,0-0.5-0.1c-0.5-0.1-1.2-0.1-1.7-0.1C114.5,19.5,113.2,20.7,113.2,22.3z"/>
<path class="st0" d="M138.9,19.5c-4.1,0-5.6,3.4-5.6,5.6c0,2.7,1.7,5.6,5.6,5.6c3.3,0,5.7-2.5,5.7-5.9
	C144.5,21.7,142.3,19.5,138.9,19.5z M139.2,30c-2.6,0-4.5-2.2-4.5-5.4c0-2.8,1.6-4.6,4.1-4.6c2,0,4.2,1.6,4.2,5.2
	C143,29.8,139.8,30,139.2,30z"/>
<path class="st0" d="M129.1,20.5c0.8,0,1.2,0.1,1.4,0.5c0.1,0.2,0.2,0.3,0.2,0.4c0,0.1,0.1,0.2,0.2,0.2c0.1,0,0.1-0.1,0.1-0.2
	c0-0.2-0.3-1.5-0.3-1.5c-0.1-0.2-0.1-0.3-0.2-0.3l-0.2,0.1c-0.1,0-0.2,0.1-0.4,0.1h-7c-0.2,0-0.3-0.1-0.4-0.1l-0.2-0.1
	c-0.1,0-0.1,0.1-0.2,0.3c0,0-0.3,1.4-0.3,1.5c0,0.1,0.1,0.2,0.1,0.2c0.1,0,0.2-0.1,0.2-0.2c0-0.1,0.1-0.2,0.2-0.4
	c0.2-0.3,0.6-0.4,1.4-0.5l2,0v5.9c0,1.3,0,2.5-0.1,3.1c-0.1,0.4-0.1,0.7-0.4,0.7c-0.2,0-0.3,0.1-0.4,0.1c-0.1,0-0.2,0.1-0.2,0.2
	c0,0.2,0.2,0.2,0.3,0.2h2.8c0.1,0,0.3,0,0.3-0.2c0-0.1,0-0.2-0.2-0.2c-0.1,0-0.3,0-0.4-0.1c-0.2,0-0.3-0.3-0.4-0.7
	c-0.1-0.6-0.1-1.8-0.1-3.1v-5.9L129.1,20.5z"/>
<path class="st0" d="M87.4,19.7c-0.2,0-0.4,0-0.4,0.2c0,0.1,0.1,0.1,0.2,0.2c0.1,0,0.2,0,0.4,0.1c0.4,0.1,0.5,0.2,0.5,1.1l0,7.2
	c0,1.3-0.1,1.6-0.4,1.7c-0.2,0.1-0.4,0.1-0.6,0.1c-0.1,0-0.2,0.1-0.2,0.2c0,0.2,0.2,0.2,0.3,0.2h2.9c0.1,0,0.3,0,0.3-0.2
	c0-0.1,0-0.2-0.2-0.2c0,0-0.4,0-0.7-0.1c-0.3-0.1-0.5-0.4-0.5-1.6c0,0-0.2-6.3-0.2-6.6c1,1.1,7.1,7.6,7.3,7.8
	c0.8,0.8,0.9,0.9,1.1,0.9c0.2,0,0.2-0.2,0.2-1.1l0-8.3c0-0.8,0.1-1.1,0.5-1.2c0.2,0,0.3,0,0.3,0c0.2,0,0.2-0.1,0.2-0.2
	c0-0.2-0.2-0.2-0.3-0.2h-2.7c-0.1,0-0.4,0-0.4,0.2c0,0.1,0.1,0.2,0.2,0.2c0.1,0,0.4,0,0.7,0.1c0.4,0.1,0.5,0.4,0.5,1.3l0,7
	c-0.2-0.3-7.5-8.2-7.5-8.2c-0.2-0.2-0.4-0.5-0.6-0.5H87.4z"/>
<g>
	<path class="st0" d="M62.7,37.5c-0.1-0.6-0.6-0.9-1.2-0.9c-1.3,0-1.7,1.2-1.7,2.2c0,1.1,0.4,2.2,1.7,2.2c0.6,0,1.1-0.3,1.3-0.9h0.5
		c-0.1,0.9-0.9,1.3-1.8,1.3c-1.6,0-2.2-1.3-2.2-2.7c0-1.4,0.7-2.7,2.2-2.7c0.8,0,1.6,0.4,1.7,1.3H62.7z"/>
	<path class="st0" d="M67,39.7c0,0.7-0.3,1.5-1.2,1.5c-0.9,0-1.2-0.8-1.2-1.5c0-0.7,0.3-1.5,1.2-1.5C66.6,38.2,67,39,67,39.7z
		 M65.8,37.8c-1.1,0-1.7,1-1.7,1.9c0,0.9,0.5,1.9,1.7,1.9c1.1,0,1.7-1,1.7-1.9C67.4,38.7,66.9,37.8,65.8,37.8z"/>
	<path class="st0" d="M69,41.5h-0.4v-2.8c0-0.3,0-0.6,0-0.8h0.4l0,0.5l0,0c0.3-0.4,0.7-0.6,1.1-0.6c1.2,0,1.3,1,1.3,1.4v2.2h-0.4
		v-2.3c0-0.6-0.4-1-0.9-1c-0.7,0-1,0.6-1,1.2V41.5z"/>
	<path class="st0" d="M73,41.5h-0.4v-2.8c0-0.3,0-0.6,0-0.8H73l0,0.5l0,0c0.2-0.4,0.7-0.6,1.1-0.6c1.2,0,1.3,1,1.3,1.4v2.2H75v-2.3
		c0-0.6-0.4-1-0.9-1c-0.7,0-1,0.6-1,1.2V41.5z"/>
	<path class="st0" d="M76.9,39.4c0.1-0.6,0.4-1.2,1.1-1.2c0.7,0,1.1,0.5,1.2,1.2H76.9z M79.6,39.8c0-1.1-0.4-2-1.6-2
		c-1.1,0-1.6,0.9-1.6,1.9c0,1,0.5,1.9,1.6,1.9c0.9,0,1.4-0.4,1.6-1.2h-0.4c-0.1,0.5-0.5,0.9-1,0.9c-0.9,0-1.2-0.6-1.2-1.4H79.6z"/>
	<path class="st0" d="M83,39c0-0.5-0.4-0.8-1-0.8c-0.7,0-1.1,0.7-1.1,1.5c0,0.8,0.4,1.5,1.1,1.5c0.6,0,0.9-0.3,1-0.8h0.5
		c-0.1,0.8-0.6,1.2-1.4,1.2c-1.1,0-1.6-0.9-1.6-1.9c0-1,0.5-1.9,1.6-1.9c0.7,0,1.3,0.4,1.4,1.2H83z"/>
	<path class="st0" d="M84.9,38.3h-0.7v-0.4h0.7v-0.8l0.4-0.2v0.9h0.8v0.4h-0.8v2.4c0,0.3,0.2,0.5,0.5,0.5c0.1,0,0.3,0,0.4,0v0.4
		c-0.1,0-0.3,0.1-0.4,0.1c-0.9,0-0.9-0.6-0.9-1.1V38.3z"/>
	<path class="st0" d="M89.4,41.5v-5.1h0.5V41h2.6v0.4H89.4z"/>
	<path class="st0" d="M93.9,37.9v3.6h-0.4v-3.6H93.9z M93.9,36.9h-0.5v-0.5h0.5V36.9z"/>
	<path class="st0" d="M95.6,41.5v-3.2h-0.7v-0.4h0.7v-0.8c0-0.6,0.2-0.9,0.9-0.9c0.1,0,0.3,0,0.4,0.1v0.3c-0.1,0-0.2,0-0.3,0
		c-0.6,0-0.6,0.3-0.6,0.8v0.5h0.8v0.4H96v3.2H95.6z"/>
	<path class="st0" d="M97.9,39.4c0.1-0.6,0.4-1.2,1.1-1.2c0.7,0,1.1,0.5,1.2,1.2H97.9z M100.6,39.8c0-1.1-0.4-2-1.6-2
		c-1.1,0-1.6,0.9-1.6,1.9c0,1,0.5,1.9,1.6,1.9c0.9,0,1.4-0.4,1.6-1.2h-0.4c-0.1,0.5-0.5,0.9-1,0.9c-0.9,0-1.2-0.6-1.2-1.4H100.6z"/>
	<path class="st0" d="M103.8,40.5c0-0.9,1.3-0.8,1.9-0.8c0,0.7-0.1,1.5-1.1,1.5C104.1,41.2,103.8,40.9,103.8,40.5z M105.6,39.3
		c-0.5,0-1.1,0-1.6,0.2c-0.4,0.2-0.7,0.5-0.7,1c0,0.7,0.5,1.1,1.2,1.1c0.5,0,1-0.3,1.1-0.6l0-0.1h0l0,0.5h0.4c0-0.2,0-0.5,0-0.8V39
		c0-0.8-0.5-1.2-1.3-1.2c-0.7,0-1.2,0.3-1.3,1h0.5c0.1-0.5,0.4-0.6,0.9-0.6c0.5,0,0.8,0.2,0.8,0.8V39.3z"/>
	<path class="st0" d="M107.7,41.5h-0.4v-2.8c0-0.3,0-0.6,0-0.8h0.4l0,0.5l0,0c0.2-0.4,0.7-0.6,1.1-0.6c1.2,0,1.3,1,1.3,1.4v2.2h-0.4
		v-2.3c0-0.6-0.4-1-0.9-1c-0.7,0-1,0.6-1,1.2V41.5z"/>
	<path class="st0" d="M113.8,39.6c0,0.8-0.3,1.6-1.2,1.6c-0.8,0-1-0.9-1-1.6c0-0.7,0.3-1.4,1.1-1.4
		C113.5,38.2,113.8,38.9,113.8,39.6z M113.8,41.5h0.4c0-0.2,0-0.5,0-0.8v-4.3h-0.4v2.1l0,0c-0.2-0.4-0.7-0.6-1.2-0.6
		c-1.1,0-1.5,1-1.5,1.9c0,0.9,0.4,1.9,1.5,1.9c0.5,0,0.9-0.2,1.2-0.7l0,0L113.8,41.5z"/>
	<path class="st0" d="M117.4,41.5v-5.1h0.5V41h2.6v0.4H117.4z"/>
	<path class="st0" d="M121.5,39.4c0.1-0.6,0.4-1.2,1.1-1.2c0.7,0,1.1,0.5,1.2,1.2H121.5z M124.2,39.8c0-1.1-0.4-2-1.6-2
		c-1.1,0-1.6,0.9-1.6,1.9c0,1,0.5,1.9,1.6,1.9c0.9,0,1.4-0.4,1.6-1.2h-0.4c-0.1,0.5-0.5,0.9-1,0.9c-0.9,0-1.2-0.6-1.2-1.4H124.2z"/>
	<path class="st0" d="M125.5,40.5c0-0.9,1.3-0.8,1.9-0.8c0,0.7-0.1,1.5-1.1,1.5C125.9,41.2,125.5,40.9,125.5,40.5z M127.4,39.3
		c-0.5,0-1.1,0-1.6,0.2c-0.4,0.2-0.7,0.5-0.7,1c0,0.7,0.5,1.1,1.2,1.1c0.5,0,1-0.3,1.1-0.6l0-0.1h0l0,0.5h0.4c0-0.2,0-0.5,0-0.8V39
		c0-0.8-0.5-1.2-1.3-1.2c-0.7,0-1.2,0.3-1.3,1h0.5c0.1-0.5,0.4-0.6,0.9-0.6c0.5,0,0.8,0.2,0.8,0.8V39.3z"/>
	<path class="st0" d="M129.5,41.5h-0.4v-2.8c0-0.3,0-0.6,0-0.8h0.4l0,0.5h0c0.1-0.4,0.4-0.6,0.8-0.6c0.1,0,0.3,0,0.4,0v0.4
		c-0.1,0-0.2,0-0.3,0c-0.6,0-1,0.5-1,1.1V41.5z"/>
	<path class="st0" d="M132.1,41.5h-0.4v-2.8c0-0.3,0-0.6,0-0.8h0.4l0,0.5l0,0c0.2-0.4,0.7-0.6,1.1-0.6c1.2,0,1.3,1,1.3,1.4v2.2h-0.4
		v-2.3c0-0.6-0.4-1-0.9-1c-0.7,0-1,0.6-1,1.2V41.5z"/>
	<path class="st0" d="M136.2,37.9v3.6h-0.4v-3.6H136.2z M136.2,36.9h-0.5v-0.5h0.5V36.9z"/>
	<path class="st0" d="M137.9,41.5h-0.4v-2.8c0-0.3,0-0.6,0-0.8h0.4l0,0.5l0,0c0.2-0.4,0.7-0.6,1.1-0.6c1.2,0,1.3,1,1.3,1.4v2.2h-0.4
		v-2.3c0-0.6-0.4-1-0.9-1c-0.7,0-1,0.6-1,1.2V41.5z"/>
	<path class="st0" d="M144,39.6c0,0.7-0.3,1.5-1.1,1.5c-0.8,0-1.1-0.8-1.1-1.4c0-0.7,0.3-1.4,1.1-1.4C143.6,38.2,144,38.9,144,39.6z
		 M144,38.4L144,38.4c-0.3-0.4-0.7-0.6-1.2-0.6c-1.1,0-1.5,0.9-1.5,1.9c0,1,0.5,1.8,1.5,1.8c0.5,0,1-0.2,1.2-0.7h0v0.7
		c0,0.6-0.5,1-1.1,1c-0.5,0-1-0.1-1-0.6h-0.5c0,0.7,0.8,1,1.4,1c0.3,0,0.5,0,0.8-0.2c0.8-0.4,0.7-1.1,0.7-1.8v-2.1
		c0-0.3,0-0.6,0-0.8H144L144,38.4z"/>
</g>
<g>
	<rect x="187.1" y="0.3" width="0.4" height="49.5"/>
	<path class="st2" d="M187.6,50h-0.7V0.2h0.7V50z M187.2,49.7h0.2V0.4h-0.2V49.7z"/>
</g>
<g>
	<path class="st0" d="M204.6,21.6h1.1v7.9h3.8v1h-4.9V21.6z"/>
	<path class="st0" d="M212.7,21.6v8.8h-1.1v-8.8H212.7z"/>
	<path class="st0" d="M215.5,21.7c0.5-0.1,1.3-0.2,2.1-0.2c1.1,0,1.9,0.2,2.4,0.6c0.5,0.3,0.7,0.9,0.7,1.6c0,0.9-0.6,1.6-1.5,1.9v0
		c0.8,0.2,1.8,0.9,1.8,2.2c0,0.8-0.3,1.3-0.7,1.8c-0.6,0.6-1.6,0.8-3,0.8c-0.8,0-1.4-0.1-1.8-0.1V21.7z M216.6,25.3h1
		c1.2,0,1.9-0.6,1.9-1.5c0-1-0.8-1.4-1.9-1.4c-0.5,0-0.8,0-1,0.1V25.3z M216.6,29.5c0.2,0,0.5,0.1,1,0.1c1.2,0,2.3-0.4,2.3-1.7
		c0-1.2-1-1.7-2.3-1.7h-0.9V29.5z"/>
	<path class="st0" d="M223.4,21.7c0.6-0.1,1.4-0.2,2.2-0.2c1.2,0,2,0.2,2.6,0.7c0.4,0.4,0.7,1,0.7,1.7c0,1.2-0.7,1.9-1.7,2.3v0
		c0.7,0.2,1.1,0.9,1.3,1.8c0.3,1.2,0.5,2.1,0.7,2.4h-1.2c-0.1-0.3-0.3-1-0.6-2.1c-0.3-1.2-0.7-1.7-1.8-1.7h-1.1v3.8h-1.1V21.7z
		 M224.5,25.7h1.2c1.2,0,2-0.7,2-1.7c0-1.1-0.8-1.6-2-1.6c-0.5,0-0.9,0.1-1.1,0.1V25.7z"/>
	<path class="st0" d="M232.7,27.6l-0.9,2.8h-1.2l3-8.8h1.4l3,8.8h-1.2l-0.9-2.8H232.7z M235.6,26.7l-0.9-2.5
		c-0.2-0.6-0.3-1.1-0.5-1.6h0c-0.1,0.5-0.3,1.1-0.4,1.6l-0.9,2.6H235.6z"/>
	<path class="st0" d="M240.1,21.7c0.6-0.1,1.4-0.2,2.2-0.2c1.2,0,2,0.2,2.6,0.7c0.4,0.4,0.7,1,0.7,1.7c0,1.2-0.7,1.9-1.7,2.3v0
		c0.7,0.2,1.1,0.9,1.3,1.8c0.3,1.2,0.5,2.1,0.7,2.4h-1.2c-0.1-0.3-0.3-1-0.6-2.1c-0.3-1.2-0.7-1.7-1.8-1.7h-1.1v3.8h-1.1V21.7z
		 M241.2,25.7h1.2c1.2,0,2-0.7,2-1.7c0-1.1-0.8-1.6-2-1.6c-0.5,0-0.9,0.1-1.1,0.1V25.7z"/>
	<path class="st0" d="M249.7,30.4v-3.7l-2.8-5.1h1.3l1.2,2.4c0.3,0.7,0.6,1.2,0.9,1.8h0c0.2-0.6,0.5-1.2,0.9-1.8l1.3-2.4h1.3l-3,5.1
		v3.8H249.7z"/>
	<path class="st0" d="M259,29c0.5,0.3,1.3,0.6,2,0.6c1.2,0,1.8-0.6,1.8-1.5c0-0.8-0.5-1.3-1.7-1.8c-1.4-0.5-2.3-1.3-2.3-2.5
		c0-1.4,1.1-2.4,2.9-2.4c0.9,0,1.6,0.2,1.9,0.4l-0.3,0.9c-0.3-0.2-0.9-0.4-1.7-0.4c-1.2,0-1.7,0.7-1.7,1.3c0,0.8,0.5,1.2,1.8,1.7
		c1.5,0.6,2.3,1.3,2.3,2.6c0,1.4-1,2.6-3.1,2.6c-0.8,0-1.8-0.3-2.3-0.6L259,29z"/>
	<path class="st0" d="M271,26.2h-3.4v3.2h3.8v1h-5v-8.8h4.8v1h-3.6v2.8h3.4V26.2z"/>
	<path class="st0" d="M273.6,21.7c0.6-0.1,1.4-0.2,2.2-0.2c1.2,0,2,0.2,2.6,0.7c0.4,0.4,0.7,1,0.7,1.7c0,1.2-0.7,1.9-1.7,2.3v0
		c0.7,0.2,1.1,0.9,1.3,1.8c0.3,1.2,0.5,2.1,0.7,2.4h-1.2c-0.1-0.3-0.3-1-0.6-2.1c-0.3-1.2-0.7-1.7-1.8-1.7h-1.1v3.8h-1.1V21.7z
		 M274.8,25.7h1.2c1.2,0,2-0.7,2-1.7c0-1.1-0.8-1.6-2-1.6c-0.5,0-0.9,0.1-1.1,0.1V25.7z"/>
	<path class="st0" d="M283.6,30.4l-2.9-8.8h1.2l1.4,4.3c0.4,1.2,0.7,2.3,0.9,3.3h0c0.2-1,0.6-2.1,1-3.3l1.5-4.4h1.2l-3.2,8.8H283.6z
		"/>
	<path class="st0" d="M290.9,21.6v8.8h-1.1v-8.8H290.9z"/>
	<path class="st0" d="M299.8,30.1c-0.4,0.2-1.3,0.4-2.3,0.4c-2.5,0-4.4-1.6-4.4-4.5c0-2.8,1.9-4.6,4.6-4.6c1.1,0,1.8,0.2,2.1,0.4
		l-0.3,0.9c-0.4-0.2-1-0.4-1.8-0.4c-2.1,0-3.4,1.3-3.4,3.6c0,2.2,1.2,3.5,3.4,3.5c0.7,0,1.4-0.1,1.9-0.4L299.8,30.1z"/>
	<path class="st0" d="M306.6,26.2h-3.4v3.2h3.8v1h-5v-8.8h4.8v1h-3.6v2.8h3.4V26.2z"/>
	<path class="st0" d="M309.1,29c0.5,0.3,1.3,0.6,2,0.6c1.2,0,1.8-0.6,1.8-1.5c0-0.8-0.5-1.3-1.7-1.8c-1.4-0.5-2.3-1.3-2.3-2.5
		c0-1.4,1.1-2.4,2.9-2.4c0.9,0,1.6,0.2,1.9,0.4l-0.3,0.9c-0.3-0.2-0.9-0.4-1.7-0.4c-1.2,0-1.7,0.7-1.7,1.3c0,0.8,0.5,1.2,1.8,1.7
		c1.5,0.6,2.3,1.3,2.3,2.6c0,1.4-1,2.6-3.1,2.6c-0.8,0-1.8-0.3-2.3-0.6L309.1,29z"/>
</g>
</svg>
