<?xml version="1.0" encoding="utf-8"?>
<!-- Generator: Adobe Illustrator 27.2.0, SVG Export Plug-In . SVG Version: 6.00 Build 0)  -->
<svg version="1.1" id="Layer_1" xmlns="http://www.w3.org/2000/svg" xmlns:xlink="http://www.w3.org/1999/xlink" x="0px" y="0px"
	 viewBox="0 0 36 36" style="enable-background:new 0 0 36 36;" xml:space="preserve">
<style type="text/css">
	.st0{fill:none;}
</style>
<g id="Group_2344" transform="translate(-299 -3319)">
	<g id="help-circle" transform="translate(300.238 3320.238)">
		<path id="Ellipse_270" d="M16.8,1c8.7,0,15.8,7.1,15.8,15.7c0,4.2-1.7,8.2-4.6,11.1c-6.2,6.2-16.1,6.2-22.3,0s-6.2-16.1,0-22.3
			C8.6,2.7,12.6,1,16.8,1z M16.8,31C24.6,31,31,24.6,31,16.8c0-3.8-1.5-7.4-4.2-10.1C21.3,1.1,12.3,1,6.7,6.5S1,21.1,6.5,26.7
			c0,0,0.1,0.1,0.1,0.1C9.4,29.5,13,31,16.8,31z"/>
		<path id="Path_2022" d="M16.6,19c-0.4,0-0.8-0.3-0.8-0.7c0-0.3,0.2-0.6,0.5-0.7c0.7-0.3,1.4-0.6,2.1-1c1-0.5,1.7-1.5,1.9-2.7
			c0-2-1.7-3.7-3.7-3.7c-1.6,0-2.9,1-3.5,2.4c-0.1,0.4-0.6,0.6-1,0.5c-0.4-0.1-0.6-0.6-0.5-1c0.9-2.7,3.9-4.1,6.6-3.2
			c2.1,0.7,3.5,2.7,3.5,4.9c0,3.5-4.7,5.1-4.9,5.1C16.8,19,16.7,19,16.6,19z"/>
		<path id="Line_268" d="M16.8,23.8"/>
	</g>
	<rect id="Rectangle_2761" x="299" y="3319" class="st0" width="36" height="36"/>
</g>
<path id="Line_265" d="M18,25L18,25c-0.4,0-0.8-0.3-0.8-0.8s0.3-0.8,0.8-0.8h0c0.4,0,0.8,0.3,0.8,0.8l0,0C18.7,24.7,18.4,25,18,25
	L18,25z"/>
</svg>
