<svg xmlns="http://www.w3.org/2000/svg" width="36" height="36"><g data-name="Group 2323"><path data-name="Rectangle 2490" d="M10 8.25h16A2.753 2.753 0 0 1 28.75 11v16A2.753 2.753 0 0 1 26 29.75H10A2.753 2.753 0 0 1 7.25 27V11A2.753 2.753 0 0 1 10 8.25zm16 20A1.251 1.251 0 0 0 27.25 27V11A1.251 1.251 0 0 0 26 9.75H10A1.251 1.251 0 0 0 8.75 11v16A1.251 1.251 0 0 0 10 28.25z"/><path data-name="Line 104" d="M22 11.75a.75.75 0 0 1-.75-.75V7a.75.75 0 0 1 .75-.75.75.75 0 0 1 .75.75v4a.75.75 0 0 1-.75.75z"/><path data-name="Line 105" d="M14 11.75a.75.75 0 0 1-.75-.75V7a.75.75 0 0 1 .75-.75.75.75 0 0 1 .75.75v4a.75.75 0 0 1-.75.75z"/><path data-name="Line 106" d="M28 16.75H8a.75.75 0 0 1-.75-.75.75.75 0 0 1 .75-.75h20a.75.75 0 0 1 .75.75.75.75 0 0 1-.75.75z"/><path data-name="Rectangle 2740" fill="none" d="M0 0h36v36H0z"/></g></svg>