<?xml version="1.0" encoding="UTF-8"?>
<svg id="Layer_2" data-name="Layer 2" xmlns="http://www.w3.org/2000/svg" viewBox="0 0 36 36">
  <defs>
    <style>
      .cls-1, .cls-2 {
        fill: none;
        stroke: #000;
        stroke-linejoin: round;
        stroke-width: 1.2px;
      }

      .cls-2 {
        stroke-linecap: round;
      }
    </style>
  </defs>
  <path class="cls-1" d="M22.29,8.11h-1.37c-.37,0-.62-.25-.75-.62-.25-1-1.12-1.74-2.24-1.74s-1.99.75-2.24,1.74c0,.37-.37.62-.75.62h-1.37c-.5,0-1,.37-1,1v1.12c0,.5.37,1,1,1h8.71c.5,0,1-.37,1-1v-1.12c0-.5-.37-1-1-1Z"/>
  <g>
    <polyline class="cls-2" points="15.08 19.8 17.56 22.42 22.79 17.19"/>
    <path class="cls-2" d="M20.55,16.32c-.87-.62-1.99-.87-3.24-.87-2.74.25-4.85,2.61-4.6,5.35s2.61,4.85,5.35,4.6c2.74-.25,4.85-2.61,4.6-5.35"/>
  </g>
  <path class="cls-1" d="M23.29,9.72h2.12c.62,0,1.24.5,1.24,1.24v18.04c0,.62-.5,1.24-1.24,1.24h-14.81c-.62,0-1.24-.5-1.24-1.24V10.97c0-.62.5-1.24,1.24-1.24h2.12"/>
  <path class="cls-1" d="M22.29,8.11h-1.37c-.37,0-.62-.25-.75-.62-.25-1-1.12-1.74-2.24-1.74s-1.99.75-2.24,1.74c0,.37-.37.62-.75.62h-1.37c-.5,0-1,.37-1,1v1.12c0,.5.37,1,1,1h8.71c.5,0,1-.37,1-1v-1.12c0-.5-.37-1-1-1Z"/>
</svg>