<svg id="Group_3281" data-name="Group 3281" xmlns="http://www.w3.org/2000/svg" xmlns:xlink="http://www.w3.org/1999/xlink" width="408.493" height="239.367" viewBox="0 0 408.493 239.367">
  <defs>
    <clipPath id="clip-path">
      <rect id="Rectangle_3298" data-name="Rectangle 3298" width="408.493" height="239.367" fill="none"/>
    </clipPath>
    <clipPath id="clip-path-3">
      <rect id="Rectangle_3279" data-name="Rectangle 3279" width="408.493" height="22.713" fill="none"/>
    </clipPath>
    <clipPath id="clip-path-4">
      <rect id="Rectangle_3280" data-name="Rectangle 3280" width="4.893" height="4.895" fill="none"/>
    </clipPath>
    <clipPath id="clip-path-5">
      <rect id="Rectangle_3281" data-name="Rectangle 3281" width="6.074" height="6.076" fill="none"/>
    </clipPath>
    <clipPath id="clip-path-6">
      <rect id="Rectangle_3282" data-name="Rectangle 3282" width="7.618" height="7.618" fill="none"/>
    </clipPath>
    <clipPath id="clip-path-7">
      <rect id="Rectangle_3283" data-name="Rectangle 3283" width="6.067" height="6.068" fill="none"/>
    </clipPath>
    <clipPath id="clip-path-8">
      <rect id="Rectangle_3284" data-name="Rectangle 3284" width="4.526" height="4.527" fill="none"/>
    </clipPath>
    <clipPath id="clip-path-9">
      <rect id="Rectangle_3285" data-name="Rectangle 3285" width="4.298" height="4.298" fill="none"/>
    </clipPath>
    <clipPath id="clip-path-10">
      <rect id="Rectangle_3286" data-name="Rectangle 3286" width="4.298" height="4.299" fill="none"/>
    </clipPath>
    <clipPath id="clip-path-11">
      <rect id="Rectangle_3287" data-name="Rectangle 3287" width="4.297" height="4.298" fill="none"/>
    </clipPath>
    <clipPath id="clip-path-12">
      <rect id="Rectangle_3288" data-name="Rectangle 3288" width="6.33" height="6.329" fill="none"/>
    </clipPath>
    <clipPath id="clip-path-13">
      <rect id="Rectangle_3289" data-name="Rectangle 3289" width="4.054" height="4.055" fill="none"/>
    </clipPath>
    <clipPath id="clip-path-14">
      <rect id="Rectangle_3290" data-name="Rectangle 3290" width="4.838" height="4.835" fill="none"/>
    </clipPath>
  </defs>
  <g id="Group_3280" data-name="Group 3280" clip-path="url(#clip-path)">
    <g id="Group_3279" data-name="Group 3279">
      <g id="Group_3278" data-name="Group 3278" clip-path="url(#clip-path)">
        <path id="Path_3040" data-name="Path 3040" d="M5.65,211.9H402.327s10.262-52.467-7.728-81.458c-21.81-35.142-45.65-21.188-55.24-35.333C326.652,76.37,330.19,1.724,249.66,6.6c-47.094,2.854-65.3,62.024-80.483,62.024-19.313,0-46.115-25.47-94.69-9.919C-9.248,85.514,5.65,211.9,5.65,211.9" transform="translate(-0.686 -0.946)" fill="#e8e4df"/>
        <g id="Group_3244" data-name="Group 3244" transform="translate(0 216.654)" opacity="0.65">
          <g id="Group_3243" data-name="Group 3243">
            <g id="Group_3242" data-name="Group 3242" clip-path="url(#clip-path-3)">
              <path id="Path_3041" data-name="Path 3041" d="M0,265.783c0,6.273,91.446,11.356,204.247,11.356s204.245-5.083,204.245-11.356-91.444-11.357-204.245-11.357S0,259.513,0,265.783" transform="translate(0 -254.426)" fill="#b9dade"/>
            </g>
          </g>
        </g>
        <g id="Group_3247" data-name="Group 3247" transform="translate(23.182 187.667)" opacity="0.6">
          <g id="Group_3246" data-name="Group 3246">
            <g id="Group_3245" data-name="Group 3245" clip-path="url(#clip-path-4)">
              <path id="Path_3042" data-name="Path 3042" d="M29.67,225.28a2.447,2.447,0,1,1,2.446-2.446,2.45,2.45,0,0,1-2.446,2.446m0-4.336a1.89,1.89,0,1,0,1.89,1.89,1.89,1.89,0,0,0-1.89-1.89" transform="translate(-27.224 -220.385)" fill="#b9dade"/>
            </g>
          </g>
        </g>
        <g id="Group_3250" data-name="Group 3250" transform="translate(259.502 196.142)" opacity="0.6">
          <g id="Group_3249" data-name="Group 3249">
            <g id="Group_3248" data-name="Group 3248" clip-path="url(#clip-path-5)">
              <path id="Path_3043" data-name="Path 3043" d="M307.781,236.414a3.038,3.038,0,1,1,3.037-3.04,3.043,3.043,0,0,1-3.037,3.04m0-5.386a2.346,2.346,0,1,0,2.347,2.346,2.349,2.349,0,0,0-2.347-2.346" transform="translate(-304.744 -230.337)" fill="#b9dade"/>
            </g>
          </g>
        </g>
        <g id="Group_3253" data-name="Group 3253" transform="translate(365.515 142.657)" opacity="0.6">
          <g id="Group_3252" data-name="Group 3252">
            <g id="Group_3251" data-name="Group 3251" clip-path="url(#clip-path-6)">
              <path id="Path_3044" data-name="Path 3044" d="M433.049,175.146a3.809,3.809,0,1,1,3.809-3.809,3.813,3.813,0,0,1-3.809,3.809m0-6.752a2.943,2.943,0,1,0,2.942,2.943,2.948,2.948,0,0,0-2.942-2.943" transform="translate(-429.24 -167.528)" fill="#b9dade"/>
            </g>
          </g>
        </g>
        <g id="Group_3256" data-name="Group 3256" transform="translate(23.888 138.675)" opacity="0.6">
          <g id="Group_3255" data-name="Group 3255">
            <g id="Group_3254" data-name="Group 3254" clip-path="url(#clip-path-7)">
              <path id="Path_3045" data-name="Path 3045" d="M31.086,168.92a3.034,3.034,0,1,1,3.034-3.033,3.038,3.038,0,0,1-3.034,3.033m0-5.378a2.344,2.344,0,1,0,2.343,2.345,2.346,2.346,0,0,0-2.343-2.345" transform="translate(-28.052 -162.852)" fill="#b9dade"/>
            </g>
          </g>
        </g>
        <g id="Group_3259" data-name="Group 3259" transform="translate(181.878 186.242)" opacity="0.7">
          <g id="Group_3258" data-name="Group 3258">
            <g id="Group_3257" data-name="Group 3257" clip-path="url(#clip-path-8)">
              <path id="Path_3046" data-name="Path 3046" d="M215.85,223.24a2.263,2.263,0,1,1,2.263-2.263,2.265,2.265,0,0,1-2.263,2.263m0-4.01a1.748,1.748,0,1,0,1.75,1.747,1.75,1.75,0,0,0-1.75-1.747" transform="translate(-213.587 -218.712)" fill="#b9dade"/>
            </g>
          </g>
        </g>
        <g id="Group_3262" data-name="Group 3262" transform="translate(60.087 103.407)" opacity="0.7">
          <g id="Group_3261" data-name="Group 3261">
            <g id="Group_3260" data-name="Group 3260" clip-path="url(#clip-path-9)">
              <path id="Path_3047" data-name="Path 3047" d="M72.711,125.733a2.149,2.149,0,1,1,2.148-2.148,2.149,2.149,0,0,1-2.148,2.148m0-3.809a1.661,1.661,0,1,0,1.66,1.661,1.664,1.664,0,0,0-1.66-1.661" transform="translate(-70.563 -121.435)" fill="#b9dade"/>
            </g>
          </g>
        </g>
        <g id="Group_3265" data-name="Group 3265" transform="translate(334.212 205.952)" opacity="0.7">
          <g id="Group_3264" data-name="Group 3264">
            <g id="Group_3263" data-name="Group 3263" clip-path="url(#clip-path-10)">
              <path id="Path_3048" data-name="Path 3048" d="M394.628,246.157a2.15,2.15,0,1,1,2.148-2.149,2.152,2.152,0,0,1-2.148,2.149m0-3.81a1.66,1.66,0,1,0,1.659,1.661,1.662,1.662,0,0,0-1.659-1.661" transform="translate(-392.479 -241.858)" fill="#98d4fc"/>
            </g>
          </g>
        </g>
        <g id="Group_3268" data-name="Group 3268" transform="translate(359.207 106.2)" opacity="0.7">
          <g id="Group_3267" data-name="Group 3267">
            <g id="Group_3266" data-name="Group 3266" clip-path="url(#clip-path-11)">
              <path id="Path_3049" data-name="Path 3049" d="M423.98,129.013a2.149,2.149,0,1,1,2.148-2.151,2.152,2.152,0,0,1-2.148,2.151m0-3.809a1.66,1.66,0,1,0,1.66,1.658,1.662,1.662,0,0,0-1.66-1.658" transform="translate(-421.832 -124.715)" fill="#98d4fc"/>
            </g>
          </g>
        </g>
        <g id="Group_3271" data-name="Group 3271" transform="translate(86.513 204.937)" opacity="0.6">
          <g id="Group_3270" data-name="Group 3270">
            <g id="Group_3269" data-name="Group 3269" clip-path="url(#clip-path-12)">
              <path id="Path_3050" data-name="Path 3050" d="M104.76,247a3.165,3.165,0,1,1,3.165-3.166A3.169,3.169,0,0,1,104.76,247m0-5.61a2.444,2.444,0,1,0,2.446,2.444,2.448,2.448,0,0,0-2.446-2.444" transform="translate(-101.596 -240.666)" fill="#b9dade"/>
            </g>
          </g>
        </g>
        <g id="Group_3274" data-name="Group 3274" transform="translate(386.914 179.225)" opacity="0.6">
          <g id="Group_3273" data-name="Group 3273">
            <g id="Group_3272" data-name="Group 3272" clip-path="url(#clip-path-13)">
              <path id="Path_3051" data-name="Path 3051" d="M456.4,214.527a2.028,2.028,0,1,1,2.027-2.028,2.032,2.032,0,0,1-2.027,2.028m0-3.594a1.567,1.567,0,1,0,1.566,1.566,1.569,1.569,0,0,0-1.566-1.566" transform="translate(-454.369 -210.472)" fill="#98d4fc"/>
            </g>
          </g>
        </g>
        <g id="Group_3277" data-name="Group 3277" transform="translate(113.556 190.94)" opacity="0.6">
          <g id="Group_3276" data-name="Group 3276">
            <g id="Group_3275" data-name="Group 3275" clip-path="url(#clip-path-14)">
              <path id="Path_3052" data-name="Path 3052" d="M135.772,229.063a2.417,2.417,0,1,1,2.418-2.417,2.421,2.421,0,0,1-2.418,2.417m0-4.284a1.869,1.869,0,1,0,1.867,1.867,1.868,1.868,0,0,0-1.867-1.867" transform="translate(-133.353 -224.229)" fill="#b9dade"/>
            </g>
          </g>
        </g>
        <path id="Path_3053" data-name="Path 3053" d="M445.036,260.758s-9.124-13.518-3.31-18.7c3.565-3.178,5.308,6.992,5.308,6.992s2.022-19.4,8.593-15.309c3.211,2-3.539,19.9-3.539,19.9s4.8-9.3,8.594-6.749c6.121,4.125-8.465,13.732-8.465,13.732Z" transform="translate(-65.291 -34.617)" fill="#8abec6"/>
        <path id="Path_3054" data-name="Path 3054" d="M469.744,248.58a.222.222,0,0,0,.217-.169,5.036,5.036,0,0,0-.6-3.753,5.364,5.364,0,0,0-3.949-2.131.227.227,0,0,0-.255.189.223.223,0,0,0,.192.254,4.946,4.946,0,0,1,3.639,1.936,4.652,4.652,0,0,1,.542,3.393.221.221,0,0,0,.159.272.2.2,0,0,0,.056.008" transform="translate(-69.056 -36.005)" fill="#8abec6"/>
        <path id="Path_3055" data-name="Path 3055" d="M438.055,241.971a.23.23,0,0,0,.171-.156,3.219,3.219,0,0,1,1.827-2.318c1.679-.647,3.77.642,3.792.654a.224.224,0,1,0,.236-.38c-.092-.057-2.3-1.411-4.188-.7a3.665,3.665,0,0,0-2.1,2.614.226.226,0,0,0,.26.283" transform="translate(-64.993 -35.462)" fill="#8abec6"/>
        <path id="Path_3056" data-name="Path 3056" d="M449.948,261.611l4.716-21.977a.225.225,0,1,0-.44-.094l-4.738,22.08Z" transform="translate(-66.73 -35.535)" fill="#ecf6f8"/>
        <path id="Path_3057" data-name="Path 3057" d="M452.874,263.531l8.684-10.554a.22.22,0,0,0-.031-.313.225.225,0,0,0-.317.029l-8.928,10.851Z" transform="translate(-67.146 -37.503)" fill="#ecf6f8"/>
        <path id="Path_3058" data-name="Path 3058" d="M447.445,262.689l-3.57-16.1a.217.217,0,0,0-.267-.17.222.222,0,0,0-.169.269l3.549,16.01Z" transform="translate(-65.832 -36.582)" fill="#ecf6f8"/>
        <path id="Path_3059" data-name="Path 3059" d="M399.971,63.956c-9.179,3.344-18.877,9.051-22.35,19.275-2.821,8.3-4.792,19.563,4.96,23.812,11.16,4.87,23.4,2.469,32.324-4.443a53.8,53.8,0,0,0,15.035-18.285q4.783-9.8,9.553-19.629a1.006,1.006,0,0,0-.819-1.435,158.754,158.754,0,0,1-20.453-.943c-6.343-.682-12.276-.522-18.249,1.648" transform="translate(-55.719 -9.197)" fill="#8abec6"/>
        <path id="Path_3060" data-name="Path 3060" d="M439.225,64.343A102.634,102.634,0,0,1,427.243,71.8c-.35.178-.7.336-1.053.5,1.335-.076,2.668-.147,4-.167a13.434,13.434,0,0,1,4.938.789c.522.2.306,1.053-.222.852a12.959,12.959,0,0,0-4.866-.76c-1.936.037-3.869.175-5.8.27a.411.411,0,0,1-.209-.038c-3.128,1.261-6.35,2.266-9.471,3.554a74.252,74.252,0,0,0-9.666,4.942c3.453,2.29,8.222,1.792,12.161,1.812q3.585.011,7.172.032c1.835.014,3.738.042,5.174,1.341.417.378-.209,1-.624.617-1.7-1.539-4.633-1.08-6.745-1.087-2.458-.007-4.913-.026-7.367-.041-3.634-.014-7.523-.005-10.578-2.187-4.507,2.758-8.816,5.868-13.081,8.965-1.4,1.012-2.813,2.037-4.19,3.085a53.4,53.4,0,0,0,34.45,1.51.437.437,0,0,1,.22.845A54.185,54.185,0,0,1,386.008,94.9a52.316,52.316,0,0,0-7.805,7.228c-.368.427-.984-.2-.621-.624.859-1.006,1.766-1.958,2.7-2.866,0-.026,0-.054,0-.084a65.12,65.12,0,0,1,4.384-16.5c2.178-5.278,4.953-11.307,9.754-14.67.462-.327.891.438.433.763A20.9,20.9,0,0,0,389,75.2a62.572,62.572,0,0,0-3.629,7.437A64.1,64.1,0,0,0,381.3,97.691c1.339-1.225,2.741-2.382,4.177-3.491a.362.362,0,0,1,.369-.284c.768-.588,1.545-1.165,2.322-1.746,1.6-1.166,3.2-2.335,4.814-3.491a45.722,45.722,0,0,1,4.578-12.29c2.372-4.326,4.861-8.6,7.293-12.891a.441.441,0,0,1,.766.436c-2.359,4.154-4.747,8.286-7.061,12.464a45.822,45.822,0,0,0-4.492,11.5q2.869-2.048,5.786-3.99,1.833-1.224,3.713-2.374a.5.5,0,0,1,.519-.32,78.006,78.006,0,0,1,7.4-4,.266.266,0,0,1,.02-.037c1.645-2.347,1.944-5.24,2.958-7.861,1.1-2.822,3.112-4.752,5.425-6.614.435-.351,1.058.267.621.621a22.9,22.9,0,0,0-3.31,3.025,12.019,12.019,0,0,0-2.149,3.919,41.815,41.815,0,0,1-2.16,6.312c4-1.728,8.2-2.906,12.163-4.7a90.444,90.444,0,0,0,13.742-8.3c.462-.317.894.449.429.769" transform="translate(-56.039 -9.293)" fill="#ecf6f8"/>
        <path id="Path_3061" data-name="Path 3061" d="M67.945,66.343A35.234,35.234,0,0,0,80.5,64.364c3.143-1.093,6.057-1.982,6.584-6.059A28.341,28.341,0,0,0,80.03,36.422a25.872,25.872,0,0,0-2.96-2.768,24.087,24.087,0,0,0-7.834-5.3c-5.425-2.233-11.367-2.4-17.2-1.606a80.441,80.441,0,0,0-8.6,1.731c-3.467.864-7.263,2.418-10.511.5-.721-.431-1.431.437-1.3,1.257.852,5.242,1.735,10.553,3.746,15.322a28.246,28.246,0,0,0,8.607,11.137c6.922,5.544,15.224,9.4,23.96,9.651" transform="translate(-4.694 -3.907)" fill="#8abec6"/>
        <path id="Path_3062" data-name="Path 3062" d="M65.776,65.459A9.284,9.284,0,0,1,73.249,62a13.6,13.6,0,0,0,4.763-.646,24.505,24.505,0,0,0,4.276-2.207,74.612,74.612,0,0,0-7.167-6.1c-.066-.051-.133-.091-.2-.141C67.2,54.331,61.865,61.067,54.287,62.943c-.551.146-.812-.707-.258-.852,7.333-1.81,12.555-8.181,19.9-9.888A50.474,50.474,0,0,0,64,47.183c-1.171-.455-2.347-.9-3.519-1.349a32.884,32.884,0,0,0-5.444,3.015,14.711,14.711,0,0,1-5.016,1.836c-3.584.606-7.255.183-10.839.817-.556.095-.823-.752-.258-.846,3.514-.62,7.1-.259,10.623-.791A14.9,14.9,0,0,0,55.22,47.7a36.337,36.337,0,0,1,4.035-2.329c-3.931-1.472-7.851-2.949-11.65-4.724-4.769.906-9.951,1.607-14.073-1.557-.452-.35.15-1,.6-.657,3.519,2.7,7.986,2.3,12.117,1.566-1.428-.694-2.837-1.44-4.219-2.251a47.68,47.68,0,0,1-10.327-8c-.393-.4.2-1.065.6-.654A52.347,52.347,0,0,0,47.711,39.734a.465.465,0,0,1,.479.235c.6.28,1.2.557,1.8.826a18.3,18.3,0,0,0-1.117-3.852,45.176,45.176,0,0,0-4.483-7.827c-.315-.473.44-.949.754-.474,2.567,3.868,5.156,7.89,5.8,12.57.475.21.953.405,1.433.611,2.691,1.122,5.455,2.1,8.2,3.111a.155.155,0,0,1,.053.02c1.471.54,2.943,1.1,4.391,1.68.293-3.481-1.448-6.655-3.188-9.553a33.158,33.158,0,0,1-4.355-9.9c-.123-.556.725-.816.849-.261a25.161,25.161,0,0,0,2.048,5.838c.9,1.806,2.031,3.489,3.029,5.24,1.574,2.762,2.806,5.762,2.469,8.991a47.825,47.825,0,0,1,8.762,4.626,56.192,56.192,0,0,1,4.919,3.858c1.4-3.907-.582-7.972-2.32-11.457a24.954,24.954,0,0,1-3.129-11.474c0-.571.884-.61.886-.033a20.5,20.5,0,0,0,1.043,6.633,68.288,68.288,0,0,0,3.1,6.754c1.478,3.181,2.464,6.8,1.13,10.186,1.735,1.543,3.41,3.149,5.08,4.758.41.388-.181,1.051-.594.656-.6-.579-1.2-1.15-1.8-1.72-2.5,1.512-5.1,2.994-8.1,3.1a15.063,15.063,0,0,0-4.693.472,8.254,8.254,0,0,0-3.73,2.71c-.356.444-1.009-.152-.656-.6" transform="translate(-4.688 -3.951)" fill="#ecf6f8"/>
        <path id="Path_3063" data-name="Path 3063" d="M47.831,90.608a103.622,103.622,0,0,1-7.012,11.417.654.654,0,0,0,.471.968q7.074,1.028,14.137,2.052a35.28,35.28,0,0,0,15.429-1.4A20.854,20.854,0,0,0,85.15,87.783c1.286-6.84-5.529-9.916-11.057-11.443-6.814-1.881-13.469,1.265-18.656,5a25.963,25.963,0,0,0-7.605,9.264" transform="translate(-6.046 -11.25)" fill="#8abec6"/>
        <path id="Path_3064" data-name="Path 3064" d="M41.295,103.012a66.757,66.757,0,0,0,8.44-3.74c.221-.123.441-.254.658-.387-.534.695-1.064,1.391-1.563,2.105a8.769,8.769,0,0,0-1.393,2.962c-.081.357.46.554.546.2a8.433,8.433,0,0,1,1.379-2.917c.731-1.032,1.518-2.025,2.275-3.038a.232.232,0,0,0,.06-.129c1.834-1.225,3.562-2.6,5.406-3.814a48.113,48.113,0,0,1,6.232-3.41c-.032,2.71-2.056,5.108-3.494,7.244q-1.313,1.944-2.62,3.892a4.79,4.79,0,0,0-1.178,3.293c.053.365.615.258.567-.109-.213-1.485,1.116-2.9,1.89-4.05q1.345-2,2.689-4c1.328-1.968,2.761-4.069,2.7-6.524,3.152-1.425,6.421-2.613,9.662-3.782,1.066-.386,2.137-.772,3.215-1.131a34.967,34.967,0,0,1-11.859,19.194c-.287.233.09.663.379.434A35.507,35.507,0,0,0,77.4,85.46a34.065,34.065,0,0,1,6.78-1.569c.365-.04.256-.6-.111-.565-.858.1-1.7.238-2.544.413a.174.174,0,0,0-.043-.031,42.749,42.749,0,0,0-10.544-3.7c-3.655-.761-7.936-1.479-11.526-.12-.347.129-.091.643.255.512a13.706,13.706,0,0,1,5.974-.569A40.372,40.372,0,0,1,71,80.606a41.656,41.656,0,0,1,9.643,3.33c-1.151.272-2.291.61-3.42.977a.238.238,0,0,0-.291.093c-.6.2-1.2.406-1.792.62q-1.837.645-3.666,1.316A30.07,30.07,0,0,0,63.142,84.9c-3.214-.308-6.441-.533-9.661-.792a.287.287,0,0,0-.043.571c3.114.255,6.225.481,9.339.764a30.157,30.157,0,0,1,7.874,1.8c-1.438.535-2.871,1.081-4.288,1.661-.889.364-1.775.74-2.652,1.137a.337.337,0,0,0-.364.163,53,53,0,0,0-4.888,2.535.073.073,0,0,1-.023,0c-1.874.026-3.553-.878-5.343-1.288a10.438,10.438,0,0,0-5.571.5c-.353.106-.247.671.1.561a15.142,15.142,0,0,1,2.853-.675,7.816,7.816,0,0,1,2.911.279A27.992,27.992,0,0,0,57.6,93.267c-2.4,1.523-4.585,3.364-7.018,4.848a59.091,59.091,0,0,1-9.543,4.382c-.345.135-.089.648.257.515" transform="translate(-6.068 -11.747)" fill="#ecf6f8"/>
        <path id="Path_3065" data-name="Path 3065" d="M30.406,262.5s11.1-20.316,3.732-22.9c-4.867-1.708-6.45,17.3-6.45,17.3s-.435-21.067-6.892-18.373c-4.877,2.032,1.638,17.241,1.638,17.241s-7.076-5.737-7.97-2.133c-1.419,5.727,6.724,8.978,6.724,8.978Z" transform="translate(-2.123 -35.375)" fill="#8abec6"/>
        <path id="Path_3066" data-name="Path 3066" d="M30.469,263.78l5.372-16.838a.177.177,0,0,0-.114-.221.174.174,0,0,0-.221.114L30.1,263.785Z" transform="translate(-4.468 -36.627)" fill="#ecf6f8"/>
        <path id="Path_3067" data-name="Path 3067" d="M28.16,263.549,24.31,245.2a.178.178,0,0,0-.208-.138.18.18,0,0,0-.138.209L27.8,263.553Z" transform="translate(-3.557 -36.381)" fill="#ecf6f8"/>
        <path id="Path_3068" data-name="Path 3068" d="M25.24,265.7l-7.315-6.3a.177.177,0,0,0-.232.267l7.014,6.035Z" transform="translate(-2.618 -38.504)" fill="#ecf6f8"/>
        <path id="Path_3069" data-name="Path 3069" d="M41.819,237.613l.294-.2c-.023-.032-2.255-3.281-5.507-2.641l.068.347c3.026-.594,5.127,2.458,5.145,2.492" transform="translate(-5.434 -34.842)" fill="#8abec6"/>
        <path id="Path_3070" data-name="Path 3070" d="M9.958,256.05l.344-.083a3.461,3.461,0,0,1,.408-3.186,3.8,3.8,0,0,1,2.9-.95l.036-.352a4.086,4.086,0,0,0-3.2,1.07,3.779,3.779,0,0,0-.488,3.5" transform="translate(-1.45 -37.332)" fill="#8abec6"/>
        <path id="Path_3071" data-name="Path 3071" d="M341.431,0H93.451a4.578,4.578,0,0,0-4.578,4.577V172.263a4.162,4.162,0,0,0,4.165,4.163H341.844a4.162,4.162,0,0,0,4.164-4.163V4.577A4.578,4.578,0,0,0,341.431,0" transform="translate(-13.194)" fill="#deeff4"/>
        <path id="Path_3072" data-name="Path 3072" d="M341.431,0H93.451a4.578,4.578,0,0,0-4.578,4.577V15.066H346.008V4.577A4.578,4.578,0,0,0,341.431,0" transform="translate(-13.194)" fill="#337780"/>
        <path id="Path_3073" data-name="Path 3073" d="M102.6,8.277A3.406,3.406,0,1,1,99.19,4.871,3.406,3.406,0,0,1,102.6,8.277" transform="translate(-14.22 -0.723)" fill="#63bed5"/>
        <path id="Path_3074" data-name="Path 3074" d="M115.776,8.252a3.406,3.406,0,1,1-3.409-3.406,3.406,3.406,0,0,1,3.409,3.406" transform="translate(-16.177 -0.719)" fill="#fde47b"/>
        <path id="Path_3075" data-name="Path 3075" d="M128.954,8.227a3.406,3.406,0,1,1-3.408-3.406,3.406,3.406,0,0,1,3.408,3.406" transform="translate(-18.133 -0.716)" fill="#8abec6"/>
        <path id="Path_3076" data-name="Path 3076" d="M112.843,40.044h-7.949a1.243,1.243,0,0,1-1.242-1.242v-7.95a1.244,1.244,0,0,1,1.242-1.243h7.949a1.244,1.244,0,0,1,1.242,1.243V38.8a1.243,1.243,0,0,1-1.242,1.242m-7.949-9.937a.746.746,0,0,0-.746.745V38.8a.747.747,0,0,0,.746.745h7.949a.747.747,0,0,0,.746-.745v-7.95a.746.746,0,0,0-.746-.745Z" transform="translate(-15.388 -4.396)" fill="#3a5b74"/>
        <path id="Path_3077" data-name="Path 3077" d="M108.6,38.792a.209.209,0,0,1-.332.015l-2.883-3.15a.259.259,0,0,1,.016-.366l.437-.4a.26.26,0,0,1,.367.016l1.981,2.161a.208.208,0,0,0,.331-.015l3.654-4.85a.261.261,0,0,1,.364-.051l.475.358a.26.26,0,0,1,.05.364Z" transform="translate(-15.635 -4.766)" fill="#ffce00"/>
        <path id="Path_3078" data-name="Path 3078" d="M112.843,60.1h-7.949a1.243,1.243,0,0,1-1.242-1.242V50.9a1.243,1.243,0,0,1,1.242-1.242h7.949a1.243,1.243,0,0,1,1.242,1.242v7.949a1.243,1.243,0,0,1-1.242,1.242m-7.949-9.937a.747.747,0,0,0-.746.745v7.949a.747.747,0,0,0,.746.746h7.949a.747.747,0,0,0,.746-.746V50.9a.747.747,0,0,0-.746-.745Z" transform="translate(-15.388 -7.373)" fill="#3a5b74"/>
        <path id="Path_3079" data-name="Path 3079" d="M108.6,58.844a.209.209,0,0,1-.332.016l-2.883-3.15a.259.259,0,0,1,.016-.366l.437-.4a.261.261,0,0,1,.367.017l1.981,2.161a.208.208,0,0,0,.331-.016l3.654-4.849a.26.26,0,0,1,.364-.051l.475.358a.26.26,0,0,1,.05.364Z" transform="translate(-15.635 -7.743)" fill="#ffce00"/>
        <path id="Path_3080" data-name="Path 3080" d="M112.843,80.147h-7.949a1.243,1.243,0,0,1-1.242-1.242V70.955a1.243,1.243,0,0,1,1.242-1.242h7.949a1.243,1.243,0,0,1,1.242,1.242V78.9a1.243,1.243,0,0,1-1.242,1.242m-7.949-9.937a.747.747,0,0,0-.746.746V78.9a.747.747,0,0,0,.746.745h7.949a.747.747,0,0,0,.746-.745V70.955a.747.747,0,0,0-.746-.746Z" transform="translate(-15.388 -10.35)" fill="#3a5b74"/>
        <path id="Path_3081" data-name="Path 3081" d="M170.411,32.719a.332.332,0,0,1-.331.331H138.112a.332.332,0,0,1-.331-.331v-.331a.332.332,0,0,1,.331-.331H170.08a.332.332,0,0,1,.331.331Zm0,2.3a.332.332,0,0,0-.331-.331H150.449a.332.332,0,0,0-.33.331v.331a.331.331,0,0,0,.33.331H170.08a.332.332,0,0,0,.331-.331Zm-30.727,2.636a.331.331,0,0,0-.33-.331H122.712a.332.332,0,0,0-.331.331v.33a.333.333,0,0,0,.331.332h16.642a.332.332,0,0,0,.33-.332Zm-3.754-5.271a.332.332,0,0,0-.331-.331H122.712a.332.332,0,0,0-.331.331v.331a.332.332,0,0,0,.331.331H135.6a.332.332,0,0,0,.331-.331Zm12.477,2.636a.332.332,0,0,0-.331-.331H122.712a.332.332,0,0,0-.331.331v.331a.332.332,0,0,0,.331.331h25.364a.332.332,0,0,0,.331-.331Z" transform="translate(-18.169 -4.759)" fill="#3a5b74"/>
        <path id="Path_3082" data-name="Path 3082" d="M170.411,52.771a.332.332,0,0,1-.331.331H141.838a.333.333,0,0,1-.332-.331V52.44a.333.333,0,0,1,.332-.331H170.08a.332.332,0,0,1,.331.331Zm0,2.3a.332.332,0,0,0-.331-.332H122.711a.332.332,0,0,0-.33.332v.331a.332.332,0,0,0,.33.33H170.08a.332.332,0,0,0,.331-.33ZM139.684,52.44a.332.332,0,0,0-.331-.331H122.711a.332.332,0,0,0-.33.331v.331a.332.332,0,0,0,.33.331h16.642a.332.332,0,0,0,.331-.331Zm30.727,2.636a.332.332,0,0,0-.331-.332H122.711a.332.332,0,0,0-.33.332v.331a.332.332,0,0,0,.33.33H170.08a.332.332,0,0,0,.331-.33ZM151.029,57.71a.332.332,0,0,0-.331-.331H122.711a.332.332,0,0,0-.33.331v.332a.331.331,0,0,0,.33.33H150.7a.331.331,0,0,0,.331-.33Z" transform="translate(-18.169 -7.736)" fill="#3a5b74"/>
        <path id="Path_3083" data-name="Path 3083" d="M170.411,72.824a.331.331,0,0,1-.331.33h-6.547a.331.331,0,0,1-.33-.33v-.331a.332.332,0,0,1,.33-.332h6.547a.332.332,0,0,1,.331.332Zm0,2.3a.332.332,0,0,0-.331-.331H134.8a.332.332,0,0,0-.332.331v.332a.333.333,0,0,0,.332.331H170.08a.333.333,0,0,0,.331-.331ZM161.3,72.493a.332.332,0,0,0-.331-.332H122.711a.332.332,0,0,0-.33.332v.331a.331.331,0,0,0,.33.33h38.255a.331.331,0,0,0,.331-.33Zm-28.735,2.635a.333.333,0,0,0-.331-.331h-9.52a.332.332,0,0,0-.33.331v.332a.333.333,0,0,0,.33.331h9.52a.333.333,0,0,0,.331-.331Zm4.637,2.636a.333.333,0,0,0-.331-.331H122.711a.332.332,0,0,0-.33.331v.331a.331.331,0,0,0,.33.331h14.158a.332.332,0,0,0,.331-.331Z" transform="translate(-18.169 -10.713)" fill="#3a5b74"/>
        <path id="Path_3084" data-name="Path 3084" d="M101.3,113.311l.613-.055a.6.6,0,0,1,.635.454,10.088,10.088,0,0,0,.547,1.526.607.607,0,0,1-.221.771l-.555.35a.5.5,0,0,0-.159.7l.839,1.334a.506.506,0,0,0,.7.16l.7-.441a.605.605,0,0,1,.755.094,10.181,10.181,0,0,0,1.2,1.04.605.605,0,0,1,.212.714l-.375.927a.508.508,0,0,0,.279.658l1.462.588a.5.5,0,0,0,.658-.278l.272-.673a.613.613,0,0,1,.741-.35,10.036,10.036,0,0,0,1.852.339.61.61,0,0,1,.563.548l.075.847a.5.5,0,0,0,.549.459l1.569-.139a.506.506,0,0,0,.459-.548l-.076-.85a.609.609,0,0,1,.456-.637,10.162,10.162,0,0,0,1.409-.5.61.61,0,0,1,.766.222l.5.789a.507.507,0,0,0,.7.159l1.335-.84a.507.507,0,0,0,.158-.7l-.56-.89a.608.608,0,0,1,.1-.762,10.111,10.111,0,0,0,1.282-1.513.605.605,0,0,1,.728-.227l.77.312a.507.507,0,0,0,.657-.28l.592-1.461a.507.507,0,0,0-.28-.659l-.61-.247a.605.605,0,0,1-.352-.719,10.246,10.246,0,0,0,.268-1.6.607.607,0,0,1,.546-.561l.7-.063a.5.5,0,0,0,.459-.548l-.14-1.57a.506.506,0,0,0-.548-.458l-.7.061a.6.6,0,0,1-.634-.454,10.079,10.079,0,0,0-.655-1.752.6.6,0,0,1,.214-.782l.582-.367a.507.507,0,0,0,.159-.7l-.84-1.334a.5.5,0,0,0-.7-.158l-.8.507a.609.609,0,0,1-.744-.084,10.338,10.338,0,0,0-1.193-.977.608.608,0,0,1-.225-.726l.42-1.035a.5.5,0,0,0-.28-.659l-1.461-.59a.5.5,0,0,0-.657.279l-.345.85a.607.607,0,0,1-.724.352,10.1,10.1,0,0,0-1.661-.282.605.605,0,0,1-.56-.545l-.077-.857a.507.507,0,0,0-.548-.462l-1.57.141a.5.5,0,0,0-.458.548l.076.856a.61.61,0,0,1-.456.64,10.282,10.282,0,0,0-1.331.464.608.608,0,0,1-.764-.226l-.5-.792a.507.507,0,0,0-.7-.161l-1.334.841a.505.505,0,0,0-.159.7l.549.874a.606.606,0,0,1-.1.76,10.374,10.374,0,0,0-1.234,1.415.6.6,0,0,1-.716.216l-.978-.4a.507.507,0,0,0-.659.279l-.59,1.462a.5.5,0,0,0,.279.656l.752.307a.6.6,0,0,1,.348.729,10.16,10.16,0,0,0-.318,1.787.6.6,0,0,1-.544.559l-.614.055a.5.5,0,0,0-.459.548l.139,1.57a.508.508,0,0,0,.55.46m3.289,0a8.153,8.153,0,1,1,6.938,5.807,8.163,8.163,0,0,1-6.938-5.807" transform="translate(-14.936 -14.701)" fill="#b0dde8"/>
        <path id="Path_3085" data-name="Path 3085" d="M369.77,154.979l-.11.029a1,1,0,0,1-1.122-.482,8.065,8.065,0,0,0-1.438-1.859,1,1,0,0,1-.139-1.31l.014-.017a1.4,1.4,0,0,0-.207-1.9,1.344,1.344,0,0,0-1.937.263l-.077.107a1.873,1.873,0,0,1-1.858.748,8.644,8.644,0,0,0-1.369-.16,1,1,0,0,1-.969-.737l-.043-.169a1.4,1.4,0,0,0-1.595-1.052,1.346,1.346,0,0,0-1.032,1.661l.065.244a1,1,0,0,1-.48,1.117,8.018,8.018,0,0,0-1.832,1.432,1,1,0,0,1-1.183.206l-.368-.192a1.4,1.4,0,0,0-1.852.473,1.349,1.349,0,0,0,.536,1.881l.345.178a1,1,0,0,1,.5,1.127,8.013,8.013,0,0,0-.226,2,.994.994,0,0,1-.732.978l-.11.029a1.4,1.4,0,0,0-1.044,1.6,1.347,1.347,0,0,0,1.666,1.024l.227-.061a1,1,0,0,1,1.112.466,8.046,8.046,0,0,0,1.448,1.8.993.993,0,0,1,.215,1.19l-.036.07a1.4,1.4,0,0,0,.472,1.85,1.347,1.347,0,0,0,1.883-.533l.05-.1a1,1,0,0,1,1.12-.5,8.017,8.017,0,0,0,1.781.206,1,1,0,0,1,.97.737l.025.095a1.4,1.4,0,0,0,1.595,1.051,1.35,1.35,0,0,0,1.031-1.663l-.045-.169a.993.993,0,0,1,.477-1.113,7.934,7.934,0,0,0,1.7-1.288.989.989,0,0,1,1.158-.182l.242.127a1.4,1.4,0,0,0,1.85-.472,1.348,1.348,0,0,0-.536-1.883l-.117-.062a1,1,0,0,1-.49-1.153,8.019,8.019,0,0,0,.284-2.038.99.99,0,0,1,.732-.954l.228-.06a1.348,1.348,0,0,0,.932-1.72,1.4,1.4,0,0,0-1.7-.863m-10.6-2.638a6.576,6.576,0,1,1-4.184,7.167,6.584,6.584,0,0,1,4.184-7.167" transform="translate(-52.18 -22.034)" fill="#b0dde8"/>
        <path id="Path_3086" data-name="Path 3086" d="M375.319,38.709l-.175.021a1.532,1.532,0,0,1-1.595-1.006,12.428,12.428,0,0,0-1.748-3.181,1.547,1.547,0,0,1,.1-2.031l.025-.025a2.159,2.159,0,0,0,.142-2.944,2.08,2.08,0,0,0-3.02-.063l-.143.146a2.9,2.9,0,0,1-3.014.691,13.294,13.294,0,0,0-2.05-.574,1.539,1.539,0,0,1-1.3-1.356l-.027-.271a2.163,2.163,0,0,0-2.179-1.986,2.084,2.084,0,0,0-1.973,2.289l.04.388a1.54,1.54,0,0,1-1,1.586,12.343,12.343,0,0,0-3.14,1.745,1.537,1.537,0,0,1-1.855.029l-.515-.381a2.159,2.159,0,0,0-2.935.276,2.078,2.078,0,0,0,.363,3l.482.357a1.539,1.539,0,0,1,.491,1.838,12.4,12.4,0,0,0-.827,3,1.535,1.535,0,0,1-1.351,1.319l-.177.017a2.159,2.159,0,0,0-1.976,2.186,2.08,2.08,0,0,0,2.294,1.965l.363-.038a1.536,1.536,0,0,1,1.585.979,12.4,12.4,0,0,0,1.776,3.09,1.534,1.534,0,0,1,.041,1.868l-.072.1a2.158,2.158,0,0,0,.274,2.935,2.078,2.078,0,0,0,3-.363l.1-.138a1.545,1.545,0,0,1,1.829-.495,12.243,12.243,0,0,0,2.667.743,1.535,1.535,0,0,1,1.3,1.356l.014.149a2.159,2.159,0,0,0,2.179,1.986,2.077,2.077,0,0,0,1.974-2.285l-.027-.27a1.53,1.53,0,0,1,1-1.582,12.619,12.619,0,0,0,2.9-1.557,1.527,1.527,0,0,1,1.81,0l.34.254a2.16,2.16,0,0,0,2.935-.276,2.082,2.082,0,0,0-.364-3l-.167-.122a1.541,1.541,0,0,1-.47-1.878,12.318,12.318,0,0,0,.924-3.04,1.535,1.535,0,0,1,1.345-1.279l.363-.038a2.078,2.078,0,0,0,1.838-2.4,2.164,2.164,0,0,0-2.389-1.731m-15.534-6.571a10.154,10.154,0,1,1-8.1,9.927,10.168,10.168,0,0,1,8.1-9.927" transform="translate(-51.361 -3.879)" fill="#b0dde8"/>
        <path id="Path_3087" data-name="Path 3087" d="M363.293,39.258a4.736,4.736,0,1,0,5.188,4.235,4.735,4.735,0,0,0-5.188-4.235m.656,6.495a1.733,1.733,0,1,1,1.549-1.9,1.733,1.733,0,0,1-1.549,1.9" transform="translate(-53.301 -5.825)" fill="#a5d9fc"/>
        <path id="Path_3088" data-name="Path 3088" d="M292.806,260.159l-5.3-35.375a1.671,1.671,0,0,0-1.67-1.4H281.1a1.672,1.672,0,0,0-1.664,1.365l-6.062,35.407Z" transform="translate(-40.585 -33.164)" fill="#ffce00"/>
        <path id="Path_3089" data-name="Path 3089" d="M297.164,269.525H267.01a.393.393,0,0,1-.393-.394v-2.167a.393.393,0,0,1,.393-.394h30.154a.393.393,0,0,1,.393.394v2.167a.393.393,0,0,1-.393.394" transform="translate(-39.582 -39.575)" fill="#ffce00"/>
        <path id="Path_3090" data-name="Path 3090" d="M290.1,239.628H277.906l.473-2.76h11.308Z" transform="translate(-41.258 -35.165)" fill="#fff"/>
        <path id="Path_3091" data-name="Path 3091" d="M289.39,232.674H279.1l.473-2.761h9.406Z" transform="translate(-41.435 -34.133)" fill="#fff"/>
        <path id="Path_3092" data-name="Path 3092" d="M273.467,266.643h19.241a.089.089,0,0,0,0-.177H273.467a.089.089,0,0,0,0,.177" transform="translate(-40.586 -39.559)" fill="#ffbc33"/>
        <path id="Path_3093" data-name="Path 3093" d="M433.456,213.1H396.247a1.218,1.218,0,0,1-1.061-1.853l18.6-29.94a1.255,1.255,0,0,1,2.123,0l18.6,29.94a1.219,1.219,0,0,1-1.061,1.853" transform="translate(-58.642 -26.83)" fill="#29566d"/>
        <path id="Path_3094" data-name="Path 3094" d="M430.935,211.416H400.086a.641.641,0,0,1-.547-.975l15.425-25.322a.639.639,0,0,1,1.093,0l15.425,25.322a.642.642,0,0,1-.548.975" transform="translate(-59.301 -27.437)" fill="#fde47b"/>
        <path id="Path_3095" data-name="Path 3095" d="M418.145,205.456h0a.958.958,0,0,1-.958-.957V193.7a.958.958,0,0,1,1.915,0v10.8a.957.957,0,0,1-.957.957" transform="translate(-61.935 -28.615)" fill="#29566d"/>
        <path id="Path_3096" data-name="Path 3096" d="M419.184,211.024a1.057,1.057,0,1,1-1.057-1.058,1.056,1.056,0,0,1,1.057,1.058" transform="translate(-61.918 -31.171)" fill="#29566d"/>
        <rect id="Rectangle_3291" data-name="Rectangle 3291" width="2.013" height="38.379" transform="translate(355.203 185.914)" fill="#29566d"/>
        <path id="Rectangle_3292" data-name="Rectangle 3292" d="M1.461,0H24.768a1.461,1.461,0,0,1,1.461,1.461v0a1.463,1.463,0,0,1-1.463,1.463H1.461A1.461,1.461,0,0,1,0,1.463v0A1.461,1.461,0,0,1,1.461,0Z" transform="translate(343.095 223.77)" fill="#29566d"/>
        <rect id="Rectangle_3293" data-name="Rectangle 3293" width="39.523" height="34.241" rx="5" transform="translate(127.849 191.938)" fill="#337780"/>
        <path id="Path_3097" data-name="Path 3097" d="M191.506,225.4h-.266v34.241h.266a4.27,4.27,0,0,0,4.258-4.258V229.659a4.27,4.27,0,0,0-4.258-4.258" transform="translate(-28.391 -33.463)" fill="#5c9299"/>
        <path id="Path_3098" data-name="Path 3098" d="M339.382,249.146a8.114,8.114,0,0,1,1.966-3.184,73.249,73.249,0,0,1,5.478-5.5h12.962a9.678,9.678,0,0,1-1.683,2.808,12.192,12.192,0,0,1-2.162,1.873,28.926,28.926,0,0,0-2.355,1.829c-.187.165-.37.334-.549.5,1.919.671,4.078,2.532,5.919,3.429l-.611,6.255c-1.563-.2-10.107-1.967-11.6-2.456a30.855,30.855,0,0,1-3.58-.568,7.2,7.2,0,0,1-3.468-2.111,3.648,3.648,0,0,1-.319-2.876" transform="translate(-50.362 -35.698)" fill="#0e4147"/>
        <path id="Path_3099" data-name="Path 3099" d="M323.786,229.255c2.821.392,12.52.85,13.838.724.026-.077,3.277-10.809,7.8-14.325,3.1,1.993,1.828,10.7,1.828,10.7-.369.932-.879,2.395-1.282,3.314a2.643,2.643,0,0,1-1.239,1.539,8.864,8.864,0,0,1-2.546.933,18.414,18.414,0,0,0-2.88.893c-.933.394-1.855.818-2.8,1.184a15.816,15.816,0,0,1-3.584.872,96.216,96.216,0,0,1-9.942-1.919,21.44,21.44,0,0,1,.811-3.916" transform="translate(-47.949 -32.016)" fill="#4a8fa0"/>
        <rect id="Rectangle_3294" data-name="Rectangle 3294" width="3.351" height="111.661" transform="translate(275.763 119.821)" fill="#1f3648"/>
        <rect id="Rectangle_3295" data-name="Rectangle 3295" width="26.612" height="2.7" transform="translate(264.133 119.544)" fill="#1f3648"/>
        <path id="Path_3100" data-name="Path 3100" d="M323.625,230.09l0,.005a3.684,3.684,0,0,0,.736-.242,8.271,8.271,0,0,1,1.353-.492.387.387,0,0,1,.4.2.5.5,0,0,1-.152.461,1.716,1.716,0,0,1-.558.4c-.159.074-.878.547-1.469.932.737,1.121,2.027,2.253-.393,1.258-.144.267,1.632.689,1.128,1.617.038.239.145.815-.72.738.649,1.275-4.192-.111-2.752-2.541.737-.885-.144-1.367,2.43-2.338" transform="translate(-47.644 -34.051)" fill="#bf7968"/>
        <path id="Path_3101" data-name="Path 3101" d="M325.524,242.307c-2.3,2.441-1.294,2.651-.686,2.325-.155.844.52.712.753.354,2.244-.371,3.227-3.938,5.38-3.266a16.429,16.429,0,0,1-.685-3.243c-6.732.13-6.007,2.486-4.069,1.706-2.71,2.752-2.4,2.26-2.717,2.7-.346,2.209,2-.651,2.026-.574" transform="translate(-48.021 -35.404)" fill="#bf7968"/>
        <path id="Path_3102" data-name="Path 3102" d="M354,213c-.775.6-3.19,3.839-4.547,3.033l-1.821-8.351,5.531-1.268s.1.535.307,1.31c.323,1.206,1.353,2.272,2.2,3.534.088.131-1.544,1.643-1.671,1.742" transform="translate(-51.61 -30.645)" fill="#bf7968"/>
        <path id="Path_3103" data-name="Path 3103" d="M352.189,205.358c-1.626.58-3.675-4.257-6.708-5.986-9.241-1.687-2.561,20.19,6.708,5.986" transform="translate(-50.632 -29.585)" fill="#bf7968"/>
        <path id="Path_3104" data-name="Path 3104" d="M340.421,200.589c-.449-.2-.979-.2-1.351-.562a1.961,1.961,0,0,1-.506-1.068,5.563,5.563,0,0,1-.048-3.13,4.534,4.534,0,0,1,3.091-2.536,13.683,13.683,0,0,1,6.739.205c.593.206.949.772,1.519,1.022,3.683,1.609,1.965,5.622,2.136,6.438.293,1.4,1.119,3.03.639,4.393-.238.679-1.467,1.192-2.234,1.262a1.125,1.125,0,0,1-.972-.284.464.464,0,0,1,.031-.431c-2.37-3.572,1.694-1.92-5.229-5.149-.639-.421-2.058-.042-3.261-.359.02.1-.127.27-.531.22-.009,0-.015-.014-.026-.02" transform="translate(-50.224 -28.648)" fill="#12252e"/>
        <path id="Path_3105" data-name="Path 3105" d="M350.386,203.244c.056.632-.181,1.171-.82,1.238a1.142,1.142,0,0,1-1.258-.914,1.1,1.1,0,0,1,.786-1.337c1.023-.23,1.236.4,1.292,1.012" transform="translate(-51.706 -30.016)" fill="#bf7968"/>
        <path id="Path_3106" data-name="Path 3106" d="M331.027,234.258a56.278,56.278,0,0,1,6.165-2c1.058-.341,6.74-2.951,7.3-3.113,0,0,.007-.016.016-.035a6.475,6.475,0,0,1-.207-1.575,51.6,51.6,0,0,1,.62-5.584c.255-1.341.495-2.691.8-4.022a20.918,20.918,0,0,1,.891-2.907c.078.373.149.72.222,1.045.62-1.57,2.768-3.186,4.434-3.975a5.6,5.6,0,0,1,5.915.337,11.577,11.577,0,0,1,4.344,5.053c2.652,5.385,3.532,6.731,5.843,12.056,1.15,2.65,2.29,6.542,1.294,9.948-.037-.029-.1-.07-.1-.07-4.653-2.968-10.169-3.4-15.341-2.435-1.579.294-4.831,1.045-4.831,1.045-.484-1.092-.98-2.183-1.475-3.274a15.233,15.233,0,0,0-1.911.474c-.963.319-1.916.667-2.888.952s-1.957.534-2.949.743a39.546,39.546,0,0,1-5.872.785c-.567.034-2.311.186-2.311.186a7.458,7.458,0,0,0,.043-3.636" transform="translate(-49.138 -31.386)" fill="#63bed5"/>
        <path id="Path_3107" data-name="Path 3107" d="M351.641,245.921c.141,2.416-.663,4.907-.7,7.322h-6.225c-.212-.935-2.045-8.8-2.163-10.364a30.8,30.8,0,0,1-.847-3.523,7.213,7.213,0,0,1,.622-4.012,3.638,3.638,0,0,1,2.534-1.4,8.142,8.142,0,0,1,3.693.6,72.706,72.706,0,0,1,7.545,3.12c.094.025.187.046.28.074,1.151.354,2.2.944,3.319,1.369a23.708,23.708,0,0,0,3.452.928,24.669,24.669,0,0,1,3.475.966,18.8,18.8,0,0,1,3.515,1.757,10.824,10.824,0,0,1-7.323,6.446,9.881,9.881,0,0,1-5.356-.21,12.143,12.143,0,0,1-2.558-1.281,29.464,29.464,0,0,0-2.591-1.477c-.223-.106-.449-.212-.677-.314" transform="translate(-50.723 -34.725)" fill="#13565e"/>
        <path id="Path_3108" data-name="Path 3108" d="M336.232,268.948a2.76,2.76,0,0,1,1.323-1.736c1.2-.806,4.929-1.87,5.327-2.226a3.482,3.482,0,0,0,.871-2.781c-.072-2.078-.337-4.164-.515-6.235a19.717,19.717,0,0,0,7.127-.087s-.306,3.718-.456,5.578a17.287,17.287,0,0,0-.086,2.729,18.792,18.792,0,0,0,.4,2.365,13.9,13.9,0,0,1,.341,2.366c.005.142,0,.435,0,.435-.495.5-1.67.464-2.223.44a37.935,37.935,0,0,0-4.153-.185c-1.814.118-3.61.413-5.426.485a9.224,9.224,0,0,1-1.78-.076.966.966,0,0,1-.745-1.071" transform="translate(-49.915 -37.988)" fill="#12252e"/>
        <path id="Path_3109" data-name="Path 3109" d="M371.427,268.995a2.763,2.763,0,0,1-1.408-1.671c-.524-1.341-.752-5.218-1.012-5.685a3.485,3.485,0,0,0-2.523-1.457c-2.045-.381-4.138-.575-6.2-.853a19.769,19.769,0,0,0,1.469-6.976l5.343,1.663a17.186,17.186,0,0,0,2.645.676,18.315,18.315,0,0,0,2.4.133,13.673,13.673,0,0,1,2.382.181c.14.027.425.094.425.094.387.594.088,1.73-.056,2.267a37.9,37.9,0,0,0-1.084,4.013c-.28,1.8-.385,3.613-.714,5.4a9.079,9.079,0,0,1-.458,1.722.967.967,0,0,1-1.207.493" transform="translate(-53.488 -37.464)" fill="#12252e"/>
        <path id="Path_3110" data-name="Path 3110" d="M290.464,96.881c-.037.176-.1.356-.152.525a4.213,4.213,0,0,1-1,1.916,4.642,4.642,0,0,0-1.053,1.012c-.159.277-.229.586.091.766a1.207,1.207,0,0,0,1.157-.144c-.135.243-.226.559.093.691.373.149.951-.148,1.332-.393-.137.227-.214.492.013.7a.913.913,0,0,0,.868.088c.138-.045.328-.2.446-.169.076.02.173.177.281.209.392.108.719-.254.961-.5a6.823,6.823,0,0,0,1.717-2.649c.186-.581.185-1.2.364-1.782a12.857,12.857,0,0,1,.9-1.609c-.766-.549-2.035-1.428-3.063-2.105a2.758,2.758,0,0,1-1.768,1.493,8.429,8.429,0,0,0-1.9.513,5.6,5.6,0,0,0-1.4,1.354c-.193.233-.485.64-.156.9.364.28.87-.171,1.154-.351.3-.187.611-.367.925-.534.207-.116.24-.164.195.07" transform="translate(-42.762 -13.872)" fill="#ee9681"/>
        <path id="Path_3111" data-name="Path 3111" d="M299.232,81.4c1.153-1.878,1.227-3.784,1.378-5.891h7.413s-.145,3.241-.219,3.2a11.671,11.671,0,0,1-1.962,5.576c-1.124,1.551-2.513,2.945-3.781,4.381-1.473,1.676-2.906,3.4-4.517,4.952a6.092,6.092,0,0,0-3.9-2.3,40.644,40.644,0,0,1,2.455-5.106c.955-1.666,2.133-3.174,3.137-4.807" transform="translate(-43.594 -11.21)" fill="#688f95"/>
        <path id="Path_3112" data-name="Path 3112" d="M328.794,103.093a11.645,11.645,0,0,0-.959,2.449,7.232,7.232,0,0,0,.189,3.234,30.3,30.3,0,0,1,.686,10.013H322.02a49.97,49.97,0,0,0-1.873-9.278,34.26,34.26,0,0,1-1.351-3.491c-.7-2.522-.058-5.232.381-7.748.48-2.76,1.04-5.505,1.47-8.274a48.147,48.147,0,0,0,.64-8.673h12.474c1.63,5.719-.318,11.775-2.725,17.048-.723,1.584-1.494,3.145-2.242,4.72" transform="translate(-47.282 -12.073)" fill="#29566d"/>
        <path id="Path_3113" data-name="Path 3113" d="M313.479,136.905a2.916,2.916,0,0,1,1.4-1.839c1.264-.85,5.214-1.976,5.634-2.354a3.682,3.682,0,0,0,.924-2.945c-.077-2.2-.36-4.4-.547-6.593a20.846,20.846,0,0,0,7.538-.092s-.323,3.934-.483,5.9a18.27,18.27,0,0,0-.089,2.888,19.978,19.978,0,0,0,.417,2.5,14.685,14.685,0,0,1,.36,2.5c.006.149,0,.459,0,.459-.523.534-1.764.489-2.351.461a40.857,40.857,0,0,0-4.394-.192c-1.917.125-3.817.437-5.739.511a9.952,9.952,0,0,1-1.884-.077,1.02,1.02,0,0,1-.786-1.133" transform="translate(-46.537 -18.273)" fill="#091317"/>
        <path id="Path_3114" data-name="Path 3114" d="M334.644,103.41a11.5,11.5,0,0,0-.958,2.45,7.2,7.2,0,0,0,.189,3.23,30.305,30.305,0,0,1,.685,10.017h-6.69A49.859,49.859,0,0,0,326,109.831a35.451,35.451,0,0,1-1.351-3.493c-.7-2.523-.056-5.231.382-7.747.479-2.762,1.04-5.505,1.471-8.274a48.363,48.363,0,0,0,.64-8.675h12.473c1.63,5.717-.317,11.78-2.724,17.05-.723,1.582-1.494,3.143-2.243,4.718" transform="translate(-48.15 -12.121)" fill="#2f627c"/>
        <path id="Path_3115" data-name="Path 3115" d="M296.854,58.1c-.584-.533-.952-.921-.952-.921a1.872,1.872,0,0,1-2.017.391c-.015-.007-6.938-4.3-8.467-2.641-1.811,1.965-.892,4.518.878,6.488a3.108,3.108,0,0,1,.766,2.27.348.348,0,0,0,.631.154l.252-.3a.163.163,0,0,1,.226-.024,8.243,8.243,0,0,0,1.792,1.078c1.4.584,2.524,1.654,4.016-.419.174-.244.328-.491.474-.737l3.584,3.594c1.537-.026,1.762-3.951,2.073-4.841a10.5,10.5,0,0,0,.427-2.3,13.806,13.806,0,0,1-3.681-1.8" transform="translate(-42.227 -8.098)" fill="#ffa18a"/>
        <path id="Path_3116" data-name="Path 3116" d="M295.7,54.639c-.935-1.439-2.88-7.836-8.976-6.714-3.631.669-8.7,6.356-5.257,9.768,1.891,1.878,4.082-1.807,8.4.337-.026-.022.184-.817.4-.85-.9-.615,1.384.7,3.05.754.857.029,2.6-.005,3.25-1.46.585-1.306-.516-1.293-.869-1.834" transform="translate(-41.617 -7.095)" fill="#12252e"/>
        <path id="Path_3117" data-name="Path 3117" d="M292.962,58.067c.385.5.482,1.063,0,1.447a1.115,1.115,0,0,1-1.512-.111,1.076,1.076,0,0,1-.077-1.508c.708-.715,1.22-.3,1.591.172" transform="translate(-43.216 -8.538)" fill="#ffa18a"/>
        <path id="Path_3118" data-name="Path 3118" d="M319.328,137.222a2.915,2.915,0,0,1,1.4-1.838c1.265-.85,5.212-1.977,5.634-2.354a3.683,3.683,0,0,0,.924-2.94c-.078-2.2-.359-4.408-.546-6.6a20.911,20.911,0,0,0,7.539-.093s-.324,3.932-.485,5.9a18.606,18.606,0,0,0-.09,2.889,19.973,19.973,0,0,0,.417,2.5,14.891,14.891,0,0,1,.363,2.5c0,.147,0,.459,0,.459-.525.533-1.768.49-2.354.469a39.151,39.151,0,0,0-4.393-.2c-1.918.125-3.817.435-5.741.509a9.618,9.618,0,0,1-1.883-.074,1.023,1.023,0,0,1-.786-1.137" transform="translate(-47.406 -18.32)" fill="#12252e"/>
        <path id="Path_3119" data-name="Path 3119" d="M236.2,56.592a49.078,49.078,0,0,1,48.345,58.3l6.827,3.641a1.453,1.453,0,0,1,.765,1.229,1.421,1.421,0,0,1-.676,1.267l-24.713,15.4a1.447,1.447,0,0,1-2.211-1.177l-1.045-29.141a1.437,1.437,0,0,1,.676-1.272,1.459,1.459,0,0,1,.766-.216,1.476,1.476,0,0,1,.68.168l5.171,2.757a33.762,33.762,0,0,0-.11-5.255,34.7,34.7,0,0,0-47.83-28.413,1.44,1.44,0,0,1-.559.116,1.457,1.457,0,0,1-1.335-.883l-4.582-10.772a1.44,1.44,0,0,1,.76-1.891A48.653,48.653,0,0,1,236.2,56.592" transform="translate(-32.104 -8.402)" fill="#3a5b74"/>
        <path id="Path_3120" data-name="Path 3120" d="M293.46,99.355a4.668,4.668,0,0,1-.219.5,4.215,4.215,0,0,1-1.237,1.77,4.632,4.632,0,0,0-1.173.865c-.194.257-.3.554-.009.775a1.219,1.219,0,0,0,1.167.008c-.165.221-.3.522,0,.693.351.2.962-.021,1.372-.214a.516.516,0,0,0-.079.694.922.922,0,0,0,.853.2c.14-.026.346-.153.462-.109.071.026.149.2.252.242.373.164.743-.158,1.018-.369A6.848,6.848,0,0,0,297.912,102c.261-.551.338-1.165.588-1.722a12.843,12.843,0,0,1,1.1-1.478c-.69-.643-1.834-1.68-2.768-2.483a2.756,2.756,0,0,1-1.944,1.253,8.4,8.4,0,0,0-1.953.264A5.558,5.558,0,0,0,291.372,99c-.223.206-.565.571-.27.87.324.323.884-.061,1.19-.2.325-.146.652-.284.984-.413.221-.086.259-.129.184.1" transform="translate(-43.148 -14.3)" fill="#ffa18a"/>
        <path id="Path_3121" data-name="Path 3121" d="M296.75,91.328a6.119,6.119,0,0,1,3.905,2.305c1.611-1.549,3.043-3.273,4.518-4.949,1.266-1.435,2.657-2.831,3.781-4.386a11.674,11.674,0,0,0,1.96-5.575c.267.152.527.315.777.491a13.327,13.327,0,0,1,5.08,7.2c1.45-.919,7.282-1.578,8.531-1.94,2.509-.736,10.889-5,10.9-5.327.026-.894-1.751-4.634-2.173-5.43a27.989,27.989,0,0,0-32.424-13.863c-1.461-.141-.743,3.364-1,5.037-.08.513-.863,2.661-.863,2.661a10.912,10.912,0,0,0,.284,3.887,4.267,4.267,0,0,0,1.421,2.121,11.921,11.921,0,0,0,2.332,1.274c-.01.135-.035.27-.044.41-.165,2.217-.2,4.21-1.4,6.169-1,1.632-2.182,3.14-3.137,4.805a41.675,41.675,0,0,0-2.456,5.107" transform="translate(-44.055 -8.734)" fill="#8abec6"/>
        <path id="Path_3122" data-name="Path 3122" d="M302.945,59.98c-.6,1.434-.351,3.079-.614,4.588a8.124,8.124,0,0,1-1.6,3.746c-.043.049-.116-.026-.075-.075a8.161,8.161,0,0,0,1.619-3.968c.214-1.428,0-2.963.571-4.321.025-.06.124-.032.1.03" transform="translate(-44.633 -8.895)" fill="#387694"/>
        <path id="Path_3123" data-name="Path 3123" d="M304.85,75.794c-.451-3.284-.882-6.739.526-9.861.027-.061.118-.009.09.053-1.395,3.092-.961,6.53-.517,9.783.009.06-.089.094-.1.026" transform="translate(-45.193 -9.784)" fill="#387694"/>
        <path id="Path_3124" data-name="Path 3124" d="M312.628,79.184q.453-2.495.912-4.988a20.489,20.489,0,0,0,.531-5.337,8.255,8.255,0,0,0-1.506-4.42,4.366,4.366,0,0,0-4.19-1.761c-.065.014-.093-.086-.026-.1a4.335,4.335,0,0,1,3.782,1.218,7.23,7.23,0,0,1,1.933,4.128,16.022,16.022,0,0,1-.272,5.468q-.53,2.911-1.063,5.822c-.013.067-.114.039-.1-.028" transform="translate(-45.771 -9.28)" fill="#387694"/>
        <path id="Path_3125" data-name="Path 3125" d="M201.177,136.07c-.191-.193-.833-.8-1.068-.374a.429.429,0,0,0-.031.284,1.272,1.272,0,0,0-.672-.461.366.366,0,0,0-.458.456.827.827,0,0,0-.164-.123,1,1,0,0,0-.427-.166c-.31-.023-.365.329-.3.57a.446.446,0,0,0-.317-.088.277.277,0,0,0-.226.215c-.075.307.189.605.358.83.046.063.086.125.123.187a3.135,3.135,0,0,1-.694.146,4.673,4.673,0,0,1-1.382-.094,3.134,3.134,0,0,0-1.135-.1,5.381,5.381,0,0,0-2.165,1.116q-2.406,1.675-4.968,3.112l1.553,2.55a42,42,0,0,1,3.88-2.829,9.335,9.335,0,0,1,2.105-.989,7.059,7.059,0,0,1,2.274-.246,6.3,6.3,0,0,0,2.136-.157,3.759,3.759,0,0,0,1.546-1.049c.339-.354.879-.835.852-1.372a2.593,2.593,0,0,0-.814-1.42" transform="translate(-27.858 -20.117)" fill="#bf7968"/>
        <path id="Path_3126" data-name="Path 3126" d="M173.217,209.53H178.4c-.036-.594-.061-1.192-.058-1.792a49.881,49.881,0,0,1,.5-6.131,25.19,25.19,0,0,1,1.355-5.721,20.687,20.687,0,0,0,1-3,8.3,8.3,0,0,0,.149-2.418h-7.381a11.076,11.076,0,0,1-.3,4.305c-.259.758-.539,1.5-.728,2.281a17.324,17.324,0,0,0-.38,2.3,42.581,42.581,0,0,0,.588,9.755c.018.138.042.278.06.418" transform="translate(-25.604 -28.277)" fill="#bf7968"/>
        <path id="Path_3127" data-name="Path 3127" d="M178.534,212.574c.055-.513.112-1.026.16-1.536a42.949,42.949,0,0,1-5.858-.063s.065.714.146,1.6Z" transform="translate(-25.659 -31.321)" fill="#98d4fc"/>
        <path id="Path_3128" data-name="Path 3128" d="M184.593,223.147a2.319,2.319,0,0,0-1.11-1.461c-1-.674-4.142-1.573-4.477-1.869a2.932,2.932,0,0,1-.732-2.337c.06-1.745.285-3.5.433-5.238a16.619,16.619,0,0,1-5.987-.072s.256,3.122.384,4.684a14.448,14.448,0,0,1,.071,2.3,16.2,16.2,0,0,1-.33,1.986,11.706,11.706,0,0,0-.29,1.989c0,.118,0,.366,0,.366.416.424,1.4.387,1.869.366a31.98,31.98,0,0,1,3.489-.152c1.523.1,3.032.347,4.56.4a7.559,7.559,0,0,0,1.5-.059.811.811,0,0,0,.624-.9" transform="translate(-25.617 -31.498)" fill="#091317"/>
        <path id="Path_3129" data-name="Path 3129" d="M162.791,209.53h5.188c-.035-.594-.061-1.192-.058-1.792a49.711,49.711,0,0,1,.5-6.131,25.145,25.145,0,0,1,1.355-5.721,20.79,20.79,0,0,0,1-3,8.266,8.266,0,0,0,.149-2.418h-7.38a11.044,11.044,0,0,1-.3,4.305c-.257.758-.538,1.5-.726,2.281a16.918,16.918,0,0,0-.38,2.3,42.532,42.532,0,0,0,.587,9.755c.02.138.042.278.06.418" transform="translate(-24.056 -28.277)" fill="#bf7968"/>
        <path id="Path_3130" data-name="Path 3130" d="M168.109,212.574c.055-.513.112-1.026.161-1.536a42.96,42.96,0,0,1-5.859-.063s.066.714.146,1.6Z" transform="translate(-24.111 -31.321)" fill="#98d4fc"/>
        <path id="Path_3131" data-name="Path 3131" d="M174.168,223.147a2.318,2.318,0,0,0-1.111-1.461c-1.006-.674-4.141-1.573-4.476-1.869a2.923,2.923,0,0,1-.732-2.337c.06-1.745.284-3.5.433-5.238a16.629,16.629,0,0,1-5.989-.072s.256,3.122.385,4.684a14.651,14.651,0,0,1,.071,2.3,15.587,15.587,0,0,1-.331,1.986,11.788,11.788,0,0,0-.286,1.989c0,.118,0,.366,0,.366.416.424,1.4.387,1.87.366a31.958,31.958,0,0,1,3.487-.152c1.524.1,3.033.347,4.561.4a7.551,7.551,0,0,0,1.5-.059.814.814,0,0,0,.625-.9" transform="translate(-24.07 -31.498)" fill="#12252e"/>
        <path id="Path_3132" data-name="Path 3132" d="M168.479,129.073c1.747-.126,5.544-4.829,5.291-4.809a23.806,23.806,0,0,0-3.3-.553,1.289,1.289,0,0,1-1.073-1.144l-.1-1.045a4.62,4.62,0,0,0,3.077-2.742,8.529,8.529,0,0,0,1.053-4.075s-.007-.167-.011-.252c-.213-3.657-2.005-6.425-5.4-6.329-2.948.086-5.293,3.175-5.515,6.832a8.984,8.984,0,0,0,1.4,4.606l.289,3.41c.049.576-.325.959-.837,1.309a14.544,14.544,0,0,1-3.175,1.274s4.546,3.791,8.3,3.519" transform="translate(-23.78 -16.052)" fill="#bf7968"/>
        <path id="Path_3133" data-name="Path 3133" d="M184.686,139.312c-1.236.025-1.731.524-2.353.128a5.261,5.261,0,0,1-1.463-1.691c-.862-1.347-1.425-2.847-2.247-4.209-.393-.651-.836-1.267-1.217-1.924-.4-.68-.753-1.384-1.168-2.052a4.511,4.511,0,0,0-.492-.909c-1.088-1.517-3.517-2.132-5.089-2.112a2.984,2.984,0,0,1-2.81,3.236c-2.508.291-5.058-.184-6.433-2.062,0,0-3.052.79-3.705,2.006a5.932,5.932,0,0,0,.068,4.836c.327.878,1.724,4.394,1.94,5.329a17.041,17.041,0,0,0,1.292,4.185c-.219,4.539-1.27,8.99-1.8,13.5a227.868,227.868,0,0,0-.892,23.635s6.433.95,9.517,1.308a36.151,36.151,0,0,0,9.444-.392q2.79-.4,5.574-.806a104.444,104.444,0,0,0-2.992-14.262,105.049,105.049,0,0,1-2.785-14.56c-.1-.888-.3-3.77-.362-4.322q-.12-2.036-.149-4.076a13.577,13.577,0,0,1,.482-2.632,7.431,7.431,0,0,0,4.536,3.111,4.12,4.12,0,0,0,2.852-.572,11.52,11.52,0,0,0,2.412-2.814c-1.273-.162-2.155-1.878-2.155-1.878" transform="translate(-23.34 -18.786)" fill="#fde47b"/>
        <path id="Path_3134" data-name="Path 3134" d="M173.437,110.038a3.187,3.187,0,0,0-1.865-2.23,4.53,4.53,0,0,0-3.543-1.708c-1.49-.129-3.41-.353-4.9.645a6.38,6.38,0,0,0-2.22,2.728,8.094,8.094,0,0,0-.914,4.858,5.115,5.115,0,0,0,1.015,2.08c.023.028.05.046.074.074a3.014,3.014,0,0,0-1.857,1.3,3.066,3.066,0,0,0-.486,2.739,2.222,2.222,0,0,0,1.04,1.048,2.314,2.314,0,0,0,1.491.2,6.445,6.445,0,0,0,2.505-1.2l-.112-1.32a6.008,6.008,0,0,0-.077-2.237,6.458,6.458,0,0,1,1.087-2.2,4.354,4.354,0,0,1,1.179-1.271,12.376,12.376,0,0,1,1.425-.716c1.441-.693,2.931-1.683,3.4-3.251a7.605,7.605,0,0,1,1.283,1.729,20.751,20.751,0,0,1,1.23,3.519,2.042,2.042,0,0,0,.219-.536,11.983,11.983,0,0,0,.032-4.243" transform="translate(-23.543 -15.734)" fill="#12252e"/>
        <path id="Path_3135" data-name="Path 3135" d="M161.82,146.062a3.86,3.86,0,0,0,2.682,2.022,7.8,7.8,0,0,0,4.014-.609c2.137-.807,3.717-2.621,5.214-4.282a19.675,19.675,0,0,0,2.523-3.4.05.05,0,1,1,.087.049,27.239,27.239,0,0,1-4.6,5.567,8.94,8.94,0,0,1-3.194,2.164,8.1,8.1,0,0,1-3.947.629,3.963,3.963,0,0,1-2.864-2.086c-.029-.06.057-.112.088-.054" transform="translate(-24.01 -20.75)" fill="#ffbc33"/>
        <path id="Path_3136" data-name="Path 3136" d="M161.874,129.824a11.174,11.174,0,0,1,2.745,4.988,30.651,30.651,0,0,0,.789,3.16c.4,1.031.975,1.981,1.325,3.032.022.063-.075.088-.1.026-.334-1-.875-1.914-1.27-2.889a21.826,21.826,0,0,1-.774-3.03,11.184,11.184,0,0,0-2.789-5.217c-.046-.045.026-.118.072-.07" transform="translate(-24.019 -19.271)" fill="#ffbc33"/>
        <path id="Path_3137" data-name="Path 3137" d="M165.732,143.772c.817-1.536,2.538-2.059,3.987-2.8a17.084,17.084,0,0,0,4.353-3.33c.046-.048.116.026.072.069a17.4,17.4,0,0,1-3.99,3.141c-1.521.846-3.457,1.324-4.334,2.973-.03.057-.117.007-.087-.05" transform="translate(-24.604 -20.432)" fill="#ffbc33"/>
        <path id="Path_3138" data-name="Path 3138" d="M180.275,143.369a3.736,3.736,0,0,0-.508-3.378c-.031-.055.054-.107.085-.05a3.819,3.819,0,0,1,.508,3.478c-.027.057-.114.009-.085-.049" transform="translate(-26.687 -20.772)" fill="#ffbc33"/>
        <path id="Path_3139" data-name="Path 3139" d="M174.984,127.2a7.3,7.3,0,0,1,1.6,2.569,22.094,22.094,0,0,1,.626,3.427c.009.066-.088.091-.1.027a26.394,26.394,0,0,0-.563-3.222,7.053,7.053,0,0,0-1.632-2.728c-.043-.05.028-.12.07-.072" transform="translate(-25.966 -18.882)" fill="#ffbc33"/>
        <path id="Path_3140" data-name="Path 3140" d="M186.652,141.869a.123.123,0,0,1-.013-.015c.014.008.03.018.044.025-.075-.009-.216.164-.265.213a2.39,2.39,0,0,0-.2.221,3.232,3.232,0,0,0-.358.538,3.143,3.143,0,0,0-.347,1.229c0,.065-.1.065-.1,0a3.217,3.217,0,0,1,.438-1.414c.083-.141.724-1.072.89-.847.038.053-.049.1-.086.05" transform="translate(-27.526 -21.049)" fill="#ffbc33"/>
        <path id="Path_3141" data-name="Path 3141" d="M180.593,186.988q-1.327-9.883-2.507-19.779-.337-2.8-.658-5.61c-.009-.063.093-.062.1,0q1.142,9.9,2.426,19.789.363,2.8.739,5.6c.008.064-.092.063-.1,0" transform="translate(-26.341 -23.984)" fill="#ffbc33"/>
        <path id="Path_3142" data-name="Path 3142" d="M174.873,190.249q.121-5.569-.176-11.139c0-.065.1-.065.1,0q.3,5.563.175,11.139a.05.05,0,0,1-.1,0" transform="translate(-25.935 -26.583)" fill="#ffbc33"/>
        <path id="Path_3143" data-name="Path 3143" d="M165.088,186.723q-.026-9.852-.053-19.711-.008-2.786-.016-5.573a.05.05,0,0,1,.1,0q.027,9.858.055,19.713.006,2.787.014,5.572a.051.051,0,0,1-.1,0" transform="translate(-24.499 -23.96)" fill="#ffbc33"/>
        <path id="Path_3144" data-name="Path 3144" d="M200.5,77.832a1.474,1.474,0,0,1,.68.169,1.456,1.456,0,0,1,.766,1.225l1.045,29.146a1.44,1.44,0,0,1-.676,1.273,1.452,1.452,0,0,1-1.442.048l-5.176-2.758a34.4,34.4,0,0,0,.111,5.254,34.7,34.7,0,0,0,47.83,28.414,1.44,1.44,0,0,1,.562-.116,1.4,1.4,0,0,1,.542.108,1.448,1.448,0,0,1,.789.775l4.583,10.773a1.439,1.439,0,0,1-.76,1.89,48.645,48.645,0,0,1-19.077,3.862,49.221,49.221,0,0,1-48.977-44.3,48.562,48.562,0,0,1,.641-14l-6.831-3.644a1.443,1.443,0,0,1-.089-2.5l24.715-15.4a1.451,1.451,0,0,1,.765-.217" transform="translate(-25.883 -11.555)" fill="#849bac"/>
        <path id="Path_3145" data-name="Path 3145" d="M184.11,129.493a.348.348,0,0,0-.2-.161.262.262,0,0,0-.034-.17.561.561,0,0,0-.312-.237c-.013,0-.025,0-.039,0a.229.229,0,0,0-.089-.282.652.652,0,0,0-.261-.066s-.009,0-.013,0c.05-.307-.356-.36-.585-.371a4.248,4.248,0,0,0-3.18,1.135,3.434,3.434,0,0,0-.839,1.311c-.213.609-.124,1.266-.335,1.871a21.592,21.592,0,0,1-2.652,3.7,7.417,7.417,0,0,1,2.81,1.822q.5-.881,1.007-1.766a4.088,4.088,0,0,1,1.215-1.517,3.79,3.79,0,0,0,1.815-2,6.468,6.468,0,0,1,.344-1.515c.244-.438.724-.6,1.071-.927.2-.19.433-.534.273-.819" transform="translate(-26.066 -19.032)" fill="#bf7968"/>
        <path id="Path_3146" data-name="Path 3146" d="M236.341,91.932a19.16,19.16,0,1,1-18.985,19.334,19.161,19.161,0,0,1,18.985-19.334" transform="translate(-32.268 -13.648)" fill="#29566d"/>
        <path id="Path_3147" data-name="Path 3147" d="M236.565,93.359a17.945,17.945,0,1,1-17.782,18.107,17.947,17.947,0,0,1,17.782-18.107" transform="translate(-32.48 -13.86)" fill="#8abec6"/>
        <path id="Path_3148" data-name="Path 3148" d="M247.145,96.7A17.943,17.943,0,0,0,219.707,117l17.019-5.693Z" transform="translate(-32.48 -13.86)" fill="#ffce00"/>
        <path id="Path_3149" data-name="Path 3149" d="M240.56,112.261a2.1,2.1,0,1,1-2.88.735,2.1,2.1,0,0,1,2.88-.735" transform="translate(-35.242 -16.622)" fill="#29566d"/>
        <path id="Path_3150" data-name="Path 3150" d="M239.6,99.138a.7.7,0,0,1-.708-.694l-.012-1.4a.7.7,0,1,1,1.4-.013l.012,1.4a.7.7,0,0,1-.691.707" transform="translate(-35.463 -14.302)" fill="#29566d"/>
        <path id="Path_3151" data-name="Path 3151" d="M250.69,103.686a.7.7,0,0,1-.506-1.192l.982-1a.7.7,0,0,1,1,.98l-.984,1a.693.693,0,0,1-.493.21" transform="translate(-37.112 -15.037)" fill="#29566d"/>
        <path id="Path_3152" data-name="Path 3152" d="M256.769,114.855l-1.4.013a.7.7,0,0,1-.013-1.4l1.4-.012a.7.7,0,1,1,.014,1.4" transform="translate(-37.807 -16.843)" fill="#29566d"/>
        <path id="Path_3153" data-name="Path 3153" d="M251.891,126.943a.682.682,0,0,1-.5-.2l-1-.98a.7.7,0,0,1,.982-1l1,.984a.7.7,0,0,1-.484,1.2" transform="translate(-37.142 -18.492)" fill="#29566d"/>
        <path id="Path_3154" data-name="Path 3154" d="M239.894,132.04a.7.7,0,0,1-.707-.693l-.014-1.4a.7.7,0,0,1,1.4-.011l.013,1.4a.7.7,0,0,1-.693.707" transform="translate(-35.508 -19.187)" fill="#29566d"/>
        <path id="Path_3155" data-name="Path 3155" d="M227.636,127.161a.7.7,0,0,1-.506-1.19l.982-1a.7.7,0,1,1,1,.982l-.981,1a.706.706,0,0,1-.494.209" transform="translate(-33.69 -18.522)" fill="#29566d"/>
        <path id="Path_3156" data-name="Path 3156" d="M223.866,115.152l-1.4.013a.7.7,0,0,1-.013-1.4l1.4-.013a.7.7,0,0,1,.013,1.4" transform="translate(-32.922 -16.887)" fill="#29566d"/>
        <path id="Path_3157" data-name="Path 3157" d="M228.414,103.889a.705.705,0,0,1-.5-.2l-1-.982a.7.7,0,1,1,.982-1l1,.98a.7.7,0,0,1-.485,1.2" transform="translate(-33.657 -15.07)" fill="#29566d"/>
        <path id="Path_3158" data-name="Path 3158" d="M230.931,115.943a.549.549,0,0,1-.526-.376.6.6,0,0,1-.029-.169.553.553,0,0,1,.376-.527l7.353-2.46,5.875-8.234a.549.549,0,1,1,.893.638l-5.978,8.381a.541.541,0,0,1-.273.2l-7.522,2.517a.593.593,0,0,1-.169.028" transform="translate(-34.201 -15.432)" fill="#29566d"/>
        <path id="Path_3159" data-name="Path 3159" d="M234.712,257.869s15.008-28.223,2.815-27.922c-5.014.124-9.344,22.564-9.344,22.564s.985-20.478-9.045-17.262c-5.425,1.74,2.784,17.262,2.784,17.262s-7.431-10.023-11.614-7.178c-6.815,4.637,5.688,12.615,5.688,12.615Z" transform="translate(-30.92 -34.137)" fill="#8abec6"/>
        <path id="Path_3160" data-name="Path 3160" d="M247.05,260.147s2.646-14.94,8.459-14.681c4.157.184.4,10.3-3.12,14.671l-5.339.01" transform="translate(-36.677 -36.441)" fill="#8abec6"/>
        <path id="Path_3161" data-name="Path 3161" d="M235.04,258.864l6.252-22.118a.28.28,0,1,1,.538.152l-6.208,21.961Z" transform="translate(-34.894 -35.117)" fill="#ecf6f8"/>
        <path id="Path_3162" data-name="Path 3162" d="M228.2,259.6l-4.333-17.9a.282.282,0,0,1,.207-.336.286.286,0,0,1,.338.208l4.362,18.028Z" transform="translate(-33.234 -35.832)" fill="#ecf6f8"/>
        <path id="Path_3163" data-name="Path 3163" d="M250.27,260.925l4-9.981a.28.28,0,0,1,.52.206l-3.917,9.775Z" transform="translate(-37.155 -37.229)" fill="#ecf6f8"/>
        <path id="Path_3164" data-name="Path 3164" d="M222.174,261.179,214.3,252.3a.28.28,0,1,1,.42-.37l8.2,9.247Z" transform="translate(-31.805 -37.387)" fill="#ecf6f8"/>
        <path id="Path_3165" data-name="Path 3165" d="M235.437,227.681a.334.334,0,0,1-.1-.016.276.276,0,0,1-.161-.36c.1-.27,2.533-6.564,6.679-8.024a5.339,5.339,0,0,1,4.645.566.279.279,0,1,1-.282.481,4.813,4.813,0,0,0-4.176-.522c-3.9,1.374-6.321,7.632-6.342,7.7a.282.282,0,0,1-.263.18" transform="translate(-34.911 -32.51)" fill="#8abec6"/>
        <path id="Path_3166" data-name="Path 3166" d="M71.418,250.849l5.544-2.054c-.272-.622-.538-1.249-.769-1.888a56.647,56.647,0,0,1-1.891-6.755,28.806,28.806,0,0,1-.817-6.65,24.013,24.013,0,0,0-.116-3.6,9.475,9.475,0,0,0-.8-2.638L63.927,228.4c.672,1.516,2.091,4.817,2.138,6.5.026.914.019,1.817.128,2.726a19.225,19.225,0,0,0,.5,2.607,48.478,48.478,0,0,0,4.494,10.192c.074.141.152.281.227.421" transform="translate(-9.491 -33.739)" fill="#ffa18a"/>
        <path id="Path_3167" data-name="Path 3167" d="M78.157,252.217c-.143-.567-.285-1.136-.435-1.7a48.378,48.378,0,0,1-6.287,2.251s.353.744.789,1.652Z" transform="translate(-10.605 -37.191)" fill="#98d4fc"/>
        <path id="Path_3168" data-name="Path 3168" d="M88.853,261.1a2.666,2.666,0,0,0-1.767-1.121c-1.341-.321-5.048-.036-5.524-.222a3.34,3.34,0,0,1-1.709-2.208c-.626-1.89-1.081-3.85-1.612-5.768a18.949,18.949,0,0,1-6.428,2.293s1.511,3.235,2.268,4.854a16.661,16.661,0,0,1,.984,2.425A18.249,18.249,0,0,1,75.5,263.6a13,13,0,0,0,.479,2.236c.043.129.144.392.144.392.613.289,1.655-.138,2.144-.343a35.131,35.131,0,0,1,3.668-1.547c1.666-.5,3.377-.831,5.034-1.373a8.935,8.935,0,0,0,1.573-.661.927.927,0,0,0,.312-1.21" transform="translate(-10.661 -37.379)" fill="#12252e"/>
        <path id="Path_3169" data-name="Path 3169" d="M105.434,192.817c.072-.537-.876-.33-1.14-.322a5.141,5.141,0,0,1-2.2-.536c.308.022.62.033.928.066a5.838,5.838,0,0,0,.771.074,4.373,4.373,0,0,0,.87-.128c.268-.056.542-.1.8-.171.139-.038.29-.11.313-.27.057-.369-.423-.5-.766-.52a.611.611,0,0,0,.3-.261c.238-.434-.351-.478-.629-.52-.847-.135-1.692-.267-2.532-.443a5.253,5.253,0,0,1-1.119-.258c-.054-.014-.1-.028-.158-.04-.031-.126-.061-.25-.092-.379.024-.049.278-.092.33-.1a4.254,4.254,0,0,0,.421-.112c.241-.094.687-.433.388-.7-.168-.147-.589-.112-.791-.112a6.925,6.925,0,0,0-1.047.051,3.223,3.223,0,0,0-1.54.784,6.484,6.484,0,0,1-2.085,1.2,5.491,5.491,0,0,1-1.284.254,10.387,10.387,0,0,0-1.21.08c-.018.005.739,2.819.989,3.416,1.1-.705,2.557-.262,3.766-.18a10.562,10.562,0,0,1,1.7.2,7.778,7.778,0,0,0,1.651.381,9.726,9.726,0,0,0,1.6-.215c.186-.032.608-.083.5-.382-.093-.258-.626-.267-.818-.307-.066-.013-.133-.02-.2-.032.224.013.447.019.672.014.375-.009,1.514.033,1.59-.523" transform="translate(-13.951 -27.921)" fill="#ee9681"/>
        <rect id="Rectangle_3296" data-name="Rectangle 3296" width="43.479" height="6.906" transform="translate(78.284 176.16) rotate(-62.658)" fill="#1f3648"/>
        <path id="Path_3170" data-name="Path 3170" d="M127.731,147.612l-4.424,8.554-4.55-2.354,4.425-8.554a8.681,8.681,0,1,0,4.549,2.354" transform="translate(-16.771 -21.545)" fill="#1f3648"/>
        <path id="Path_3171" data-name="Path 3171" d="M90.241,220.1l4.425-8.553-4.55-2.354-4.424,8.554a8.679,8.679,0,1,1,4.549,2.353" transform="translate(-12.336 -30.118)" fill="#1f3648"/>
        <path id="Path_3172" data-name="Path 3172" d="M98.557,197.329h0a.91.91,0,0,1-.39-1.228l15.1-29.193a.909.909,0,1,1,1.615.835l-15.1,29.194a.912.912,0,0,1-1.226.391" transform="translate(-14.559 -24.706)" fill="#8abec6"/>
        <path id="Path_3173" data-name="Path 3173" d="M91.311,189.415a79.645,79.645,0,0,1-10.372-.643,10.993,10.993,0,0,1-5.126-1.649,41.972,41.972,0,0,1-4.052-5.092l-3.579,5.314a54.988,54.988,0,0,0,3.995,4.683c2.142,1.864,5.833,1.8,7.986,1.886,1.448.056,9.459-.078,12.049-1.162a7.365,7.365,0,0,1-.9-3.338" transform="translate(-10.122 -27.024)" fill="#2c4457"/>
        <path id="Path_3174" data-name="Path 3174" d="M104.42,196.18c.065-.536-.881-.315-1.145-.3a5.128,5.128,0,0,1-2.2-.5c.309.015.622.024.929.051a6.315,6.315,0,0,0,.771.065,4.386,4.386,0,0,0,.869-.141c.267-.06.541-.1.8-.181.137-.043.287-.114.309-.274.052-.369-.431-.493-.773-.51a.63.63,0,0,0,.3-.268c.232-.435-.358-.469-.637-.509-.849-.122-1.7-.243-2.539-.41a5.033,5.033,0,0,1-1.121-.242c-.054-.011-.106-.025-.159-.037-.033-.123-.066-.25-.1-.376.023-.049.277-.095.328-.108a4.24,4.24,0,0,0,.419-.117c.239-.1.682-.444.379-.71-.169-.151-.591-.1-.794-.1a6.614,6.614,0,0,0-1.047.066,3.182,3.182,0,0,0-1.529.806,6.422,6.422,0,0,1-2.066,1.226,5.5,5.5,0,0,1-1.282.271,10.668,10.668,0,0,0-1.211.1c-.015,0,.78,2.808,1.039,3.4,1.085-.72,2.551-.3,3.762-.234a11.061,11.061,0,0,1,1.7.175,7.791,7.791,0,0,0,1.656.361,9.734,9.734,0,0,0,1.6-.238c.186-.032.605-.094.5-.391-.095-.252-.628-.257-.822-.292l-.2-.032c.223.01.446.014.671.006.375-.015,1.515.011,1.583-.546" transform="translate(-13.796 -28.429)" fill="#ffa18a"/>
        <path id="Path_3175" data-name="Path 3175" d="M50.218,249.267l5.894.461c.013-.68.036-1.357.092-2.036a56.934,56.934,0,0,1,1.118-6.926,28.7,28.7,0,0,1,2.045-6.38,23.781,23.781,0,0,0,1.405-3.313,9.492,9.492,0,0,0,.381-2.736l-8.385-.654a12.619,12.619,0,0,1-.724,4.863c-.36.84-.745,1.654-1.028,2.528a19.772,19.772,0,0,0-.636,2.578,48.615,48.615,0,0,0-.2,11.137c.009.161.022.319.032.478" transform="translate(-7.417 -33.802)" fill="#ffa18a"/>
        <path id="Path_3176" data-name="Path 3176" d="M56.179,253.176c.109-.578.219-1.158.319-1.731a48.305,48.305,0,0,1-6.652-.594s.01.82.025,1.832Z" transform="translate(-7.4 -37.241)" fill="#98d4fc"/>
        <path id="Path_3177" data-name="Path 3177" d="M61.955,265.729a2.654,2.654,0,0,0-1.135-1.758c-1.083-.856-4.566-2.151-4.92-2.52a3.338,3.338,0,0,1-.626-2.721c.224-1.983.634-3.953.958-5.914a18.942,18.942,0,0,1-6.8-.614s.014,3.572.022,5.356a16.546,16.546,0,0,1-.123,2.614,18.442,18.442,0,0,1-.552,2.232,13.281,13.281,0,0,0-.5,2.231c-.014.134-.034.416-.034.416.437.519,1.562.565,2.092.584a35.313,35.313,0,0,1,3.979.135c1.722.246,3.415.663,5.145.862a8.665,8.665,0,0,0,1.7.065.93.93,0,0,0,.791-.969" transform="translate(-7.162 -37.442)" fill="#12252e"/>
        <path id="Path_3178" data-name="Path 3178" d="M90.8,193.017a79.977,79.977,0,0,1-10.374-.64,10.952,10.952,0,0,1-5.126-1.653,33.3,33.3,0,0,1-3.643-4.351l-3.986,4.581a55.235,55.235,0,0,0,3.995,4.677c2.142,1.869,5.832,1.8,7.985,1.89,1.449.055,9.459-.082,12.048-1.166a7.357,7.357,0,0,1-.9-3.339" transform="translate(-10.047 -27.669)" fill="#29566d"/>
        <path id="Path_3179" data-name="Path 3179" d="M58.872,164.681c-.174-.793-.33-1.32-.33-1.32a1.911,1.911,0,0,0,1.381-1.58c0-.023.227-6.814,2.481-7.316,2.67-.594,3.985-.01,4.821,2.567a3.189,3.189,0,0,0,1.621,1.845.356.356,0,0,1-.192.636l-.393.069a.169.169,0,0,0-.136.187,8.379,8.379,0,0,1,.036,2.142c-.2,1.541.166,3.083-2.433,3.34-.306.027-.6.042-.9.043l1.346,5.02c-.814,1.346-4.406-.469-5.354-.65a10.629,10.629,0,0,1-2.256-.8c.163-1.522.573-2.948.3-4.179" transform="translate(-8.691 -22.9)" fill="#ffa18a"/>
        <path id="Path_3180" data-name="Path 3180" d="M57.507,166.051a4.35,4.35,0,0,1-1.212.518,1.876,1.876,0,0,1-2.045-.886,2.651,2.651,0,0,1-.3-2.168A2.556,2.556,0,0,1,55.93,161.5s-2.207-1.353-2.087-5.029a7.166,7.166,0,0,1,2.687-5.225,7.41,7.41,0,0,1,4.479-1.35c1.3.049,3.326.112,4.2,1.2a3.614,3.614,0,0,1-.9,4.874c-.344.23-.789.357-1.035.709s-.164.807-.266,1.207a8.178,8.178,0,0,1-1.1,2.127,14.889,14.889,0,0,0-.945,2.429,5.18,5.18,0,0,1-1.147,1.718,15.491,15.491,0,0,1-1.931,1.623c-.121.089-.247.175-.372.262" transform="translate(-7.993 -22.253)" fill="#a55852"/>
        <path id="Path_3181" data-name="Path 3181" d="M55.215,189.02c.565-1.932.048-3.933-.313-5.859a30.956,30.956,0,0,1-.656-5.182,10.184,10.184,0,0,1,2.635-7.51,21.711,21.711,0,0,0,3.605,1.264,17.231,17.231,0,0,0,3.6-.119c2.415,3.033,2.543,3.831,3.9,7.246.012.03,1.347,2.434,1.3,7.961a28.625,28.625,0,0,1-.175,2.957c-.177,1.575-.4,3.149-.433,4.733a31.4,31.4,0,0,0,.413,5.228,184.477,184.477,0,0,0,4.364,19.894c.031.11-13.832,1.087-16.454,1.316-4.851.422-6.183-.118-10.56-1.968.712-9.26,8.319-28.418,8.766-29.961" transform="translate(-6.896 -25.308)" fill="#3a5b74"/>
        <path id="Path_3182" data-name="Path 3182" d="M70.907,185.784a59.961,59.961,0,0,1-3.947-5.032,32.394,32.394,0,0,0-2.106-2.58,5.732,5.732,0,0,0-2.721-1.833,2.478,2.478,0,0,0-3.009,1.373c-.023.063-.126.037-.1-.028a2.4,2.4,0,0,1,1.886-1.508,3.879,3.879,0,0,1,2.876.86,13.9,13.9,0,0,1,2.414,2.55c.724.915,1.405,1.858,2.1,2.794a37.248,37.248,0,0,0,2.688,3.329c.047.049-.03.127-.076.077" transform="translate(-8.762 -26.149)" fill="#254d62"/>
        <path id="Path_3183" data-name="Path 3183" d="M70.454,195.3c-1.933-1.3-3.857-2.617-5.67-4.08a28.064,28.064,0,0,1-4.968-4.935,4.625,4.625,0,0,1-1.1-3.416c.011-.063.115-.034.1.03a4.538,4.538,0,0,0,1.087,3.335,22.5,22.5,0,0,0,2.3,2.572,43.3,43.3,0,0,0,5.165,4.247c1.03.736,2.078,1.449,3.131,2.154.055.041,0,.131-.055.094" transform="translate(-8.712 -27.144)" fill="#254d62"/>
      </g>
    </g>
  </g>
</svg>
