<svg xmlns="http://www.w3.org/2000/svg" width="36" height="36" viewBox="0 0 36 36">
  <g id="Group_2350" data-name="Group 2350" transform="translate(-469 -4759)">
    <g id="settings_1_" data-name="settings (1)" transform="translate(475 4765)">
      <path id="Ellipse_91" data-name="Ellipse 91" d="M3-1A4,4,0,1,1-1,3,4,4,0,0,1,3-1ZM3,5A2,2,0,1,0,1,3,2,2,0,0,0,3,5Z" transform="translate(9 9)"/>
      <path id="Path_1964" data-name="Path 1964" d="M12.08,24a3,3,0,0,1-3-3v-.076a.646.646,0,0,0-.425-.586L8.6,20.315a.65.65,0,0,0-.714.127l-.055.055a3,3,0,1,1-4.244-4.245l.055-.055a.647.647,0,0,0,.127-.714l0-.01a.65.65,0,0,0-.595-.394H3a3,3,0,1,1,0-6h.076a.646.646,0,0,0,.586-.425q.011-.03.024-.059a.647.647,0,0,0-.127-.714L3.5,7.827A3,3,0,1,1,7.747,3.583l.055.055a.65.65,0,0,0,.714.127,1,1,0,0,1,.2-.064A.65.65,0,0,0,9,3.166V3a3,3,0,1,1,6,0v.09a.648.648,0,0,0,.394.591l.01,0a.65.65,0,0,0,.714-.127l.055-.055a3,3,0,1,1,4.244,4.245l-.055.055a.647.647,0,0,0-.127.714,1,1,0,0,1,.064.2A.65.65,0,0,0,20.834,9H21a3,3,0,0,1,0,6h-.09a.648.648,0,0,0-.591.394l0,.01a.647.647,0,0,0,.127.714l.055.055a3,3,0,1,1-4.245,4.244l-.055-.055a.65.65,0,0,0-.714-.127l-.01,0a.65.65,0,0,0-.394.595V21A3,3,0,0,1,12.08,24ZM9.375,18.473a2.635,2.635,0,0,1,1.7,2.414q0,.012,0,.023V21a1,1,0,0,0,2,0v-.17A2.662,2.662,0,0,1,17.6,18.935l.008.008.06.06a1,1,0,1,0,1.416-1.415l-.06-.06-.008-.008A2.663,2.663,0,0,1,20.906,13H21a1,1,0,0,0,0-2h-.17A2.65,2.65,0,0,1,18.4,9.394a1,1,0,0,1-.072-.263,2.636,2.636,0,0,1,.607-2.73l.008-.008.06-.06a1,1,0,1,0-1.415-1.416l-.06.06-.008.008A2.663,2.663,0,0,1,13,3.094V3a1,1,0,0,0-2,0v.17A2.65,2.65,0,0,1,9.394,5.6a1,1,0,0,1-.264.072A2.65,2.65,0,0,1,6.4,5.065l-.008-.008L6.333,5A1,1,0,1,0,4.917,6.413l.06.06.008.008a2.637,2.637,0,0,1,.543,2.894,2.635,2.635,0,0,1-2.414,1.7H3a1,1,0,0,0,0,2h.17A2.663,2.663,0,0,1,5.065,17.6l-.008.008-.06.06a1,1,0,1,0,1.415,1.416l.06-.06.008-.008a2.65,2.65,0,0,1,2.894-.543Z"/>
    </g>
    <rect id="Rectangle_2773" data-name="Rectangle 2773" width="36" height="36" transform="translate(469 4759)" fill="none"/>
  </g>
</svg>
