<svg xmlns="http://www.w3.org/2000/svg" width="36" height="36" viewBox="0 0 36 36">
  <g id="Group_2352" data-name="Group 2352" transform="translate(-469 -4899)">
    <g id="user" transform="translate(475 4905)">
      <path id="Path_1920" data-name="Path 1920" d="M20,22a1,1,0,0,1-1-1V19a3,3,0,0,0-3-3H8a3,3,0,0,0-3,3v2a1,1,0,0,1-2,0V19a5.006,5.006,0,0,1,5-5h8a5.006,5.006,0,0,1,5,5v2A1,1,0,0,1,20,22Z"/>
      <path id="Ellipse_32" data-name="Ellipse 32" d="M4-1A5,5,0,1,1-1,4,5.006,5.006,0,0,1,4-1ZM4,7A3,3,0,1,0,1,4,3,3,0,0,0,4,7Z" transform="translate(8 3)"/>
    </g>
    <rect id="Rectangle_2775" data-name="Rectangle 2775" width="36" height="36" transform="translate(469 4899)" fill="none"/>
  </g>
</svg>
